<?xml version="1.0" encoding="utf-8"?>
<!-- Generator: Adobe Illustrator 16.0.0, SVG Export Plug-In . SVG Version: 6.00 Build 0)  -->
<!DOCTYPE svg PUBLIC "-//W3C//DTD SVG 1.1//EN" "http://www.w3.org/Graphics/SVG/1.1/DTD/svg11.dtd">
<svg version="1.1" id="Calque_1" xmlns="http://www.w3.org/2000/svg" xmlns:xlink="http://www.w3.org/1999/xlink" x="0px" y="0px"
	 width="256px" height="112.167px" viewBox="0 -60.167 256 112.167" enable-background="new 0 -60.167 256 112.167"
	 xml:space="preserve">
<g>
	<path fill="#231F20" d="M232.686-5.124v-22.253c0-0.431,0.14-0.718,0.42-0.718h2.937c1.632,0,2.751,0.358,3.591,1.292
		c1.632,1.795,2.191,5.814,2.191,10.265c0,4.38-0.466,7.753-1.818,9.691c-0.839,1.292-2.238,1.723-3.824,1.723H232.686
		L232.686-5.124z M248.213,21.58c5.549,0,7.693-3.876,7.787-11.413h-0.56c0,4.809-0.933,7.537-2.564,7.537
		c-1.167,0-1.772-0.861-2.099-2.298c-0.373-2.009-0.652-5.239-0.886-8.255c-0.56-8.039-4.849-10.553-10.212-11.485v-0.144
		c6.668-0.719,10.818-4.738,10.818-12.203c0-7.969-3.639-12.419-12.171-12.419H219.35v0.718l3.916,0.071
		c0.373,0,0.466,0.216,0.466,0.646v46.876c0,0.502-0.093,0.646-0.466,0.646l-3.916,0.071v0.719h17.625v-0.719l-3.823-0.071
		c-0.374,0-0.466-0.144-0.466-1.005V-4.119l3.684,0.072c2.424,0,4.01,1.221,4.196,5.456c0.094,2.584,0.187,6.029,0.327,8.111
		C241.265,17.919,243.83,21.58,248.213,21.58L248.213,21.58z M200.138,20.647h17.72v-0.719l-3.917-0.071
		c-0.374,0-0.513-0.144-0.513-0.646v-46.876c0-0.503,0.139-0.646,0.513-0.646l3.917-0.072V-29.1h-17.72v0.718l3.917,0.071
		c0.373,0,0.467,0.144,0.467,0.646v46.876c0,0.502-0.094,0.646-0.467,0.646l-3.917,0.071V20.647L200.138,20.647z M182.838,21.724
		c10.025,0,16.74-11.27,16.74-25.771c0-14.572-6.715-25.843-16.74-25.843s-16.787,11.271-16.787,25.843
		C166.052,10.454,172.813,21.724,182.838,21.724L182.838,21.724z M182.838,20.862c-1.072,0-1.958-0.144-3.03-1.148
		c-2.472-2.369-3.87-9.188-3.87-23.761c0-14.645,1.398-21.464,3.87-23.833c1.072-1.077,1.958-1.221,3.03-1.221
		c1.026,0,1.959,0.144,2.984,1.221c2.472,2.369,3.917,9.188,3.917,23.833c0,14.572-1.445,21.392-3.917,23.761
		C184.797,20.719,183.864,20.862,182.838,20.862L182.838,20.862z M150.896,20.862h3.125L164.42-22.64
		c0.979-4.092,1.771-5.599,3.497-5.671l1.726-0.071V-29.1h-9.652v0.718l2.191,0.071c2.377,0.072,2.145,3.087,1.398,6.174
		l-6.808,28.57h-0.14l-6.994-31.586c-0.467-2.153-0.514-3.086,0.746-3.158l3.217-0.071V-29.1h-17.254v0.718l1.959,0.071
		c1.399,0.072,1.772,1.148,2.332,3.518L150.896,20.862L150.896,20.862z M104.174,20.647h31.568V0.116h-0.42
		c-1.166,5.098-2.705,10.193-4.756,13.854c-2.145,4.021-4.476,5.743-8.207,5.743h-4.383c-0.373,0-0.466-0.215-0.466-0.646V-4.047
		h1.539c1.958,0,3.59,0.503,4.71,2.226c1.445,2.01,2.331,5.671,2.424,9.26h0.56v-23.833h-0.56c-0.093,3.59-1.212,7.322-2.472,9.261
		c-1.072,1.795-2.657,2.226-4.663,2.226h-1.539v-22.612c0-0.431,0.093-0.646,0.419-0.646h4.15c2.984,0,5.269,1.364,6.854,3.446
		c2.146,2.728,3.824,7.537,5.037,14.141h0.513v-18.521h-30.31v0.719l3.917,0.071c0.373,0,0.467,0.216,0.467,0.646v46.876
		c0,0.43-0.094,0.646-0.467,0.646l-3.917,0.071V20.647z M81.885,19.714c-0.373,0-0.466-0.215-0.466-0.646v-46.66
		c0-0.431,0.093-0.646,0.419-0.646h3.591c1.678,0,3.077,0.287,4.197,1.148c2.891,2.226,4.149,9.476,4.149,22.971
		c0,13.138-1.632,20.101-4.103,22.54c-1.166,1.078-2.564,1.293-4.01,1.293H81.885L81.885,19.714z M68.129,20.647h18.652
		c9.233,0,16.834-8.974,16.834-24.838c0-15.721-7.461-24.909-17.02-24.909H68.129v0.718l3.917,0.071
		c0.373,0,0.466,0.216,0.466,0.646v46.876c0,0.43-0.093,0.646-0.466,0.646l-3.917,0.071V20.647L68.129,20.647z"/>
	<path fill="#849DAA" d="M32.374,20.691H64V0.243h-0.42c-1.168,5.076-2.709,10.152-4.765,13.799c-2.148,4.004-4.484,5.72-8.222,5.72
		h-4.391c-0.374,0-0.467-0.214-0.467-0.644V-3.904h1.541c1.962,0,3.598,0.501,4.719,2.217c1.448,2.002,2.336,5.648,2.43,9.224h0.561
		v-23.737h-0.561c-0.094,3.574-1.215,7.292-2.477,9.223c-1.074,1.788-2.662,2.217-4.671,2.217h-1.542v-22.521
		c0-0.43,0.093-0.644,0.42-0.644h4.159c2.989,0,5.278,1.358,6.867,3.432c2.149,2.717,3.83,7.507,5.045,14.085h0.514v-18.446H32.374
		v0.715l3.924,0.071c0.374,0,0.467,0.215,0.467,0.644v46.688c0,0.43-0.094,0.645-0.467,0.645l-3.924,0.07V20.691z M0,20.691h30.458
		V-1.401h-0.514c-1.214,5.076-2.663,10.295-4.672,14.228c-2.242,4.361-4.11,7.007-7.334,7.007h-4.111
		c-0.374,0-0.467-0.285-0.467-0.715l-0.047-46.545c0-0.501,0.14-0.644,0.514-0.644l3.924-0.072v-0.715H0v0.715l3.924,0.072
		c0.374,0,0.467,0.143,0.467,0.644v46.688c0,0.43-0.093,0.715-0.467,0.715H0V20.691z"/>
</g>
</svg>
