<?xml version="1.0" encoding="utf-8"?>
<!-- Generator: Adobe Illustrator 16.0.0, SVG Export Plug-In . SVG Version: 6.00 Build 0)  -->
<!DOCTYPE svg PUBLIC "-//W3C//DTD SVG 1.1//EN" "http://www.w3.org/Graphics/SVG/1.1/DTD/svg11.dtd">
<svg version="1.1"
	 id="svg2" xmlns:dc="http://purl.org/dc/elements/1.1/" xmlns:svg="http://www.w3.org/2000/svg" xmlns:rdf="http://www.w3.org/1999/02/22-rdf-syntax-ns#" xmlns:cc="http://creativecommons.org/ns#"
	 xmlns="http://www.w3.org/2000/svg" xmlns:xlink="http://www.w3.org/1999/xlink" x="0px" y="0px" width="432px" height="245px"
	 viewBox="25.238 -55.083 432 245" enable-background="new 25.238 -55.083 432 245" xml:space="preserve">
<g id="g10" transform="matrix(1.3333333,0,0,-1.3333333,0,213.33333)">
	<g id="g12">
		<g>
			<defs>
				<rect id="SVGID_1_" x="-60.435" y="6.019" width="483.477" height="206.836"/>
			</defs>
			<clipPath id="SVGID_2_">
				<use xlink:href="#SVGID_1_"  overflow="visible"/>
			</clipPath>
			<g id="g14" clip-path="url(#SVGID_2_)">
				<g id="g20" transform="translate(154.2446,79.9023)">
					<path id="path22" fill="#FFFFFF" d="M-4.698,29.439c0-34.735-28.162-62.903-62.9-62.903c-34.735,0-62.901,28.168-62.901,62.903
						c0,34.738,28.165,62.9,62.901,62.9C-32.861,92.34-4.698,64.177-4.698,29.439"/>
				</g>
				<g id="g24" transform="translate(89.5078,145.5391)">
					<path id="path26" fill="#ED3729" d="M-2.726,27.441c-35.093,0-63.543-28.45-63.543-63.543c0-35.095,28.45-63.543,63.543-63.543
						c35.096,0,63.546,28.447,63.546,63.543C60.819-1.01,32.37,27.441-2.726,27.441 M28.617-76.187H15.251l-3.698,26.141
						c-0.016,0.125-0.124,0.22-0.249,0.22c-0.128,0-0.234-0.095-0.249-0.22L7.35-76.187H2.224L-2.48-33.034
						c-0.012,0.125-0.122,0.218-0.246,0.218c-0.128,0-0.233-0.093-0.249-0.218L-7.68-76.187h-5.094l-3.705,26.157
						c-0.013,0.127-0.121,0.223-0.249,0.223c-0.128,0-0.234-0.096-0.246-0.223l-3.705-26.157h-13.388l5.337,10.438l-24.608,19.782
						l4.82,4.132l-4.197,16.668l14.563-2.021l4.19,7.879l16.911-12.893L-23.652-2.76l10.614-4.63l10.312,17.968L7.586-7.391
						l10.613,4.63l-6.605-29.443L28.508-19.31l4.191-7.879l14.563,2.021l-4.193-16.668l4.816-4.132L23.277-65.749L28.617-76.187z"/>
				</g>
				<g id="g28" transform="translate(181.4756,113.9966)">
					<path id="path30" fill="#231F20" d="M-5.528,28.401H8.428l2.44-17.786h0.08l3.788,17.786h9.437L17.931-0.982H3.969
						L1.552,16.926h-0.08L-2.337-0.982h-9.442L-5.528,28.401z"/>
				</g>
				<g id="g32" transform="translate(234.8984,105.3911)">
					<path id="path34" fill="#231F20" d="M-7.155,28.663c0.344,1.83-0.541,2.443-2.047,2.443c-1.875,0-2.862-0.814-3.051-1.712
						c-0.226-1.057,0.374-1.507,1.514-1.871c2.102-0.648,6.039-1.463,8.737-2.727c3.376-1.545,4.443-4.188,3.694-7.729
						C0.155,9.865-6.343,6.852-14.644,6.852c-7.08,0-13.124,2.198-11.498,9.847h11.153c-0.177-0.814-0.185-1.626,0.133-2.242
						c0.326-0.565,0.974-0.932,2.076-0.932c1.712,0,3.044,1.099,3.319,2.405c0.233,1.096-0.496,1.668-1.528,1.989l-7.742,2.443
						c-4.23,1.342-5.237,4.069-4.436,7.85c1.301,6.106,6.959,9.565,15.544,9.565c7.326,0,12.334-2.277,10.884-9.114H-7.155z"/>
				</g>
				<g id="g36" transform="translate(255.9946,113.9966)">
					<path id="path38" fill="#231F20" d="M-7.798,28.401h22.34l-1.626-7.652H1.723l-0.665-3.133h10.332L9.765,9.966H-0.567
						l-0.703-3.3h11.555L8.66-0.982h-22.707L-7.798,28.401z"/>
				</g>
				<g id="g40" transform="translate(287.5977,113.9966)">
					<path id="path42" fill="#231F20" d="M-8.76,28.401H8.617c6.304,0,9.601-1.914,8.426-7.448c-0.723-3.376-2.687-5.944-7.31-7
						l-0.014-0.08c2.794-0.242,4.072-1.504,4.168-3.743c0.115-2.525-0.853-6.674-0.45-11.111H2.04
						C1.817,1.219,2.235,4.921,2.366,7.443C2.437,8.91,1.82,9.475-0.051,9.475h-1.338L-3.615-0.982h-11.396L-8.76,28.401z
						 M-0.233,16.15c2.239,0,4.031,0.776,4.497,2.974c0.459,2.152-0.951,2.599-3.226,2.599h-1.064l-1.178-5.573H-0.233z"/>
				</g>
				<g id="g44" transform="translate(348.0063,94.8999)">
					<path id="path46" fill="#231F20" d="M-10.601,28.983c-1.72-8.099-8.946-11.638-16.23-11.638
						c-10.293,0-13.721,6.266-11.737,15.585c1.66,9.154,8.428,15.341,18.357,15.341c7.404,0,13.034-3.012,11.236-11.639h-10.661
						c0.55,3.338-0.536,3.989-1.957,3.989c-3.012,0-3.957-3.091-4.958-7.814c-0.951-4.474-1.417-7.812,1.511-7.812
						c1.504,0,2.711,0.897,3.533,3.989H-10.601z"/>
				</g>
				<g id="g48" transform="translate(201.1333,52.0908)">
					<path id="path50" fill="#231F20" d="M-6.127,30.288c-1.72-8.101-8.946-11.638-16.224-11.638
						c-10.293,0-13.723,6.262-11.743,15.584c1.664,9.151,8.431,15.34,18.357,15.34c7.409,0,13.033-3.011,11.242-11.638h-10.663
						c0.546,3.338-0.534,3.99-1.958,3.99c-3.014,0-3.954-3.092-4.956-7.816c-0.955-4.474-1.418-7.811,1.511-7.811
						c1.507,0,2.714,0.897,3.532,3.989H-6.127z"/>
				</g>
				<g id="g52" transform="translate(212.5688,71.1851)">
					<path id="path54" fill="#231F20" d="M-6.475,29.706h17.377c6.308,0,9.607-1.91,8.426-7.446c-0.723-3.379-2.687-5.94-7.305-7
						l-0.018-0.08c2.793-0.245,4.074-1.504,4.164-3.742c0.115-2.527-0.85-6.675-0.45-11.112H4.326
						C4.103,2.523,4.521,6.225,4.659,8.751c0.063,1.46-0.553,2.038-2.418,2.038H0.896L-1.327,0.326h-11.392L-6.475,29.706z
						 M3.291,17.457c2.242,0,4.034,0.776,4.496,2.974c0.457,2.156-0.948,2.6-3.226,2.6H3.503l-1.185-5.574H3.291z"/>
				</g>
				<g id="g56" transform="translate(261.9761,62.582)">
					<path id="path58" fill="#231F20" d="M-7.98,29.967c0.344,1.83-0.536,2.443-2.041,2.443c-1.878,0-2.862-0.817-3.053-1.712
						c-0.223-1.057,0.377-1.508,1.511-1.871c2.101-0.652,6.039-1.463,8.741-2.728c3.379-1.545,4.442-4.192,3.689-7.729
						C-0.667,11.169-7.166,8.158-15.466,8.158c-7.078,0-13.123,2.197-11.498,9.845h11.15c-0.173-0.814-0.182-1.625,0.133-2.235
						c0.329-0.571,0.981-0.942,2.076-0.942c1.712,0,3.048,1.102,3.322,2.402c0.237,1.101-0.499,1.674-1.53,1.995l-7.742,2.443
						c-4.225,1.342-5.238,4.069-4.433,7.857c1.298,6.104,6.957,9.56,15.547,9.56c7.321,0,12.328-2.281,10.878-9.115H-7.98z"/>
				</g>
				<g id="g60" transform="translate(282.6431,71.1851)">
					<path id="path62" fill="#231F20" d="M-8.61,29.706H5.35l2.44-17.784h0.086l3.779,17.784h9.44l-6.25-29.38H0.892l-2.418,17.907
						h-0.083L-5.415,0.326h-9.444L-8.61,29.706z"/>
				</g>
				<g id="g64" transform="translate(333.2632,57.9634)">
					<path id="path66" fill="#231F20" d="M-10.152,30.108H4.983L1.71,14.728c-4.807-1.179-10.261-1.953-15.064-1.953
						c-10.575,0-14.369,6.471-12.456,15.461c1.909,8.998,8.453,15.465,19.359,15.465c9.032,0,13.126-2.971,11.786-9.85H-5.572
						c0.16,0.939-0.082,1.551-0.491,1.916c-0.412,0.363-1.066,0.53-1.794,0.53c-1.754,0-3.082-0.895-3.903-2.076
						c-0.82-1.182-1.597-4.074-2.126-6.557c-0.607-2.846-0.777-4.797-0.448-5.733c0.431-1.22,1.457-1.75,2.963-1.75
						c1.099,0,2.191,0.166,3.223,0.611l0.753,3.541h-3.985L-10.152,30.108z"/>
				</g>
			</g>
		</g>
	</g>
</g>
</svg>
