<?xml version="1.0" encoding="utf-8"?>
<!-- Generator: Adobe Illustrator 16.0.0, SVG Export Plug-In . SVG Version: 6.00 Build 0)  -->
<!DOCTYPE svg PUBLIC "-//W3C//DTD SVG 1.1//EN" "http://www.w3.org/Graphics/SVG/1.1/DTD/svg11.dtd">
<svg version="1.1" id="Layer_1" xmlns="http://www.w3.org/2000/svg" xmlns:xlink="http://www.w3.org/1999/xlink" x="0px" y="0px"
	 width="182.733px" height="74.873px" viewBox="0 0 182.733 74.873" enable-background="new 0 0 182.733 74.873"
	 xml:space="preserve">
<g>
	<rect y="64.177" fill="#C12736" width="17.813" height="10.695"/>
	<rect y="53.482" width="17.813" height="10.695"/>
	<rect y="42.785" fill="#F7941E" width="17.813" height="10.697"/>
	<rect y="32.09" width="17.813" height="10.695"/>
	<rect y="10.697" width="17.813" height="10.696"/>
	<rect fill="#27AAE1" width="17.813" height="10.697"/>
	<rect y="21.393" fill="#8DC63F" width="17.813" height="10.697"/>
	<g>
		<path d="M52.35,21.35c-0.003-0.006-0.02-0.007-0.024-0.002c-0.094,0.106-0.232,0.21-0.419,0.21
			c0.095,0.228,0.173,0.514,0.173,0.819c0,0.307-0.04,0.766-0.169,1.069c0.211-0.017,0.421-0.024,0.421-0.024
			s0.189,0.006,0.433,0.024c-0.128-0.302-0.165-0.763-0.165-1.068s0.076-0.593,0.171-0.82C52.584,21.558,52.442,21.456,52.35,21.35z
			"/>
		<path d="M50.365,20c0.371,0.222,0.712,0.449,0.955,0.857c-0.111,0.046-0.228,0.096-0.35,0.157
			c-1.148,0.565-0.916,2.542,0.097,2.57c0.133-0.022,0.279-0.043,0.424-0.058c0.126-0.236,0.206-0.498,0.25-0.76
			c-0.076,0.142-0.2,0.234-0.339,0.234c-0.233,0-0.421-0.261-0.421-0.582c0-0.322,0.188-0.582,0.421-0.582
			c0.162,0,0.303,0.123,0.372,0.307c-0.018-0.314-0.092-0.598-0.21-0.807c-0.021-0.037-0.018-0.082,0.009-0.115
			c0.026-0.031,0.071-0.045,0.11-0.031c0.355,0.118,0.572-0.242,0.583-0.258c0.015-0.025,0.035-0.047,0.069-0.047
			c0.033,0,0.057,0.02,0.073,0.049c0.011,0.014,0.229,0.374,0.581,0.256c0.041-0.014,0.086,0,0.111,0.031
			c0.026,0.033,0.03,0.078,0.01,0.116c-0.118,0.208-0.193,0.492-0.212,0.806c0.071-0.184,0.212-0.307,0.374-0.307
			c0.23,0,0.422,0.262,0.422,0.582c0,0.321-0.191,0.582-0.422,0.582c-0.14,0-0.263-0.092-0.339-0.234
			c0.044,0.264,0.125,0.523,0.251,0.76c0.144,0.016,0.29,0.035,0.423,0.059c1.014-0.027,1.246-2.006,0.097-2.571
			c-0.123-0.061-0.24-0.11-0.351-0.155c0.243-0.409,0.584-0.637,0.955-0.857c0.421-0.25,0.784-0.482,1.076-0.963
			c0.027-0.047,0.014-0.109-0.034-0.138c-0.048-0.03-0.11-0.016-0.14,0.032c-0.265,0.438-0.643,0.645-1.029,0.871
			c-0.396,0.232-0.815,0.461-1.09,0.951c-0.304-0.121-0.551-0.231-0.738-0.47c-0.008-0.009-0.023-0.012-0.03-0.001
			c-0.19,0.237-0.438,0.35-0.742,0.469c-0.272-0.488-0.694-0.718-1.089-0.95c-0.386-0.226-0.764-0.435-1.029-0.87
			c-0.028-0.048-0.091-0.063-0.14-0.035c-0.048,0.029-0.063,0.094-0.034,0.141C49.583,19.519,49.945,19.75,50.365,20z"/>
		<path d="M60.608,28.172c0.061-0.143,0.079-0.543-0.065-0.684c-0.255-0.25-0.623-0.332-0.623-0.332s0.078-0.193-0.116-0.408
			c-0.2-0.221-1.562-0.963-1.872-1.071c-0.389-0.136-1.558-0.507-1.927-0.583c-0.126-0.027-0.343-0.07-0.605-0.115
			c-0.132-0.131-0.254-0.248-0.373-0.355c0.816-0.65,1.368-1.463,1.381-1.72c0.015-0.292-0.132-0.364-0.132-0.364
			s0.246-0.104,0.175-0.293c-0.145-0.393-0.188-1.242-0.188-1.242s0.188-0.146,0.467-0.131c-0.074-0.176-0.22-0.264-0.352-0.248
			c-0.129,0.015-0.205,0.072-0.291,0.146c-0.087,0.073-0.061,0.278-0.061,0.409s0.015,0.691-0.057,0.906
			c-0.117,0.35-0.117,0.512,0.016,0.645c-0.041,0.13-1.079,1.049-1.566,1.449c-0.411-0.225-0.889-0.332-1.642-0.361v-0.01h-0.422
			c-0.042,0-0.076,0.001-0.115,0.001h-0.341v0.008c-0.753,0.028-1.229,0.138-1.64,0.362c-0.488-0.4-1.527-1.319-1.566-1.451
			c0.132-0.133,0.132-0.293,0.015-0.644c-0.071-0.215-0.06-0.774-0.06-0.906c0-0.13,0.031-0.335-0.058-0.408
			c-0.088-0.074-0.161-0.132-0.292-0.146c-0.132-0.016-0.278,0.071-0.35,0.248c0.276-0.016,0.466,0.131,0.466,0.131
			s-0.043,0.85-0.189,1.242c-0.069,0.188,0.176,0.292,0.176,0.292s-0.146,0.072-0.133,0.365c0.014,0.257,0.565,1.067,1.382,1.72
			c-0.118,0.107-0.239,0.225-0.371,0.355c-0.264,0.045-0.479,0.088-0.607,0.113c-0.369,0.078-1.538,0.449-1.929,0.584
			c-0.309,0.108-1.67,0.852-1.87,1.072c-0.194,0.215-0.116,0.408-0.116,0.408s-0.367,0.082-0.623,0.332
			c-0.145,0.141-0.126,0.539-0.065,0.682c0.054,0.125,0.2,0.117,0.2,0.117s-0.097-0.646,0.43-0.721
			c0.272-0.039,0.486-0.02,0.486-0.02s0.76-0.467,0.975-0.564s0.624-0.741,0.624-0.741s0.32,0.144,0.613,0.144
			c0.199,0,0.777-0.389,1.129-0.639l-0.089,0.091l0.941,0.046c0.055,0.004,0.119,0.005,0.188,0.005c0.096,0,0.202-0.003,0.298-0.007
			c-1.034,1.102-1.974,1.73-2.889,2.338c-0.954,0.636-1.853,1.234-2.793,2.313c-0.888,1.02-1.214,1.734-0.999,2.187
			c0.153,0.317,0.545,0.468,1.169,0.444c1.816-0.064,2.922-0.414,3.304-1.039c-0.041,0.193-0.064,0.412-0.067,0.658
			c-0.492,0.813-0.742,1.428-0.889,1.984c-0.091,0.346-0.005,0.461,0.218,0.626c-0.175,0.379-0.139,0.772-0.381,0.905
			c-0.583,0.322-0.319,0.527-0.319,0.527l0.556-0.089l0.466-1.197c0,0,0.101,0.018,0.182-0.036c0.33-0.23,0.081-1.057,0.666-2.273
			c0.234,0.058,0.264-0.088,0.322-0.643c0.021-0.215,0.055-0.475,0.098-0.736c0.391-0.111,0.7-0.267,0.948-0.453
			c0.046,1.943,0.643,3.375,1.142,4.238c0.579,1.004,1.298,1.703,1.748,1.703c0.451,0,1.169-0.699,1.751-1.701
			c0.497-0.861,1.092-2.29,1.139-4.23c0.246,0.183,0.554,0.334,0.938,0.443c0.042,0.262,0.076,0.521,0.1,0.738
			c0.059,0.555,0.087,0.698,0.321,0.641c0.584,1.217,0.336,2.045,0.666,2.273c0.08,0.055,0.183,0.036,0.183,0.036l0.466,1.199
			l0.555,0.087c0,0,0.264-0.205-0.32-0.525c-0.242-0.135-0.205-0.527-0.38-0.906c0.224-0.166,0.308-0.281,0.217-0.627
			c-0.148-0.557-0.396-1.17-0.888-1.982c-0.003-0.248-0.027-0.467-0.067-0.661c0.381,0.626,1.487,0.976,3.303,1.042
			c0.626,0.021,1.018-0.128,1.169-0.445c0.217-0.451-0.112-1.166-0.998-2.187c-0.938-1.078-1.84-1.677-2.792-2.312
			c-0.915-0.609-1.856-1.237-2.89-2.34c0.162,0.006,0.354,0.008,0.484,0.002l0.942-0.048l-0.086-0.087
			c0.354,0.25,0.928,0.637,1.125,0.637c0.294,0,0.615-0.143,0.615-0.143s0.408,0.643,0.623,0.74s0.975,0.564,0.975,0.564
			s0.215-0.02,0.486,0.02c0.526,0.074,0.429,0.721,0.429,0.721S60.554,28.297,60.608,28.172z M52.325,29.739
			c0.587,0.001,1.138,0.02,1.638,0.058l0.195,0.027c0.025,0.064,0.052,0.129,0.08,0.195c0.084,0.189,0.173,0.375,0.273,0.553
			c-1.476,0.24-2.904,0.24-4.354,0.008c0.104-0.18,0.195-0.368,0.279-0.561c0.029-0.064,0.055-0.129,0.078-0.191l0.198-0.031
			C51.208,29.759,51.75,29.74,52.325,29.739z M49.855,32.087c-0.025-0.263-0.04-0.536-0.044-0.821
			c1.493,0.288,3.523,0.271,5.063,0.002c-0.003,0.283-0.019,0.554-0.044,0.814C53.216,32.324,51.439,32.324,49.855,32.087z
			 M54.73,32.816c-0.051,0.281-0.113,0.549-0.185,0.801c-1.438,0.188-2.989,0.188-4.404,0.004c-0.071-0.252-0.134-0.521-0.186-0.807
			C51.424,33.047,53.218,33.033,54.73,32.816z M45.133,32.828c0.147-0.623,0.659-1.834,1.837-3.12
			c0.016-0.017,0.017-0.042,0.002-0.058c-0.018-0.017-0.041-0.017-0.059-0.002c-1.392,1.213-1.956,2.568-2.105,3.205
			c-0.15,0.011-0.304,0.02-0.467,0.025c-0.344,0.012-0.78-0.025-0.902-0.283c-0.02-0.042-0.035-0.1-0.035-0.178
			c0-0.268,0.183-0.773,0.992-1.7c0.914-1.05,1.874-1.552,2.811-2.175c1.081-0.721,2.059-1.192,3.321-2.693
			c-0.014,0.224-0.031,0.483-0.031,0.615c0,0.262,0.016,0.52,0.03,0.773c0.014,0.253,0.028,0.512,0.028,0.775
			c0,0.583-0.071,1.199-0.377,1.892c-0.379,0.858-0.825,1.587-2.354,1.798c0.275-1.069,0.877-2.381,1.454-3.053
			c0.016-0.018,0.016-0.041-0.002-0.057c-0.017-0.016-0.042-0.014-0.057,0.003c-0.75,0.751-1.448,2.114-1.721,3.204
			c-0.006,0.01-0.01,0.018-0.013,0.027C47.31,32.354,46.5,32.695,45.133,32.828z M52.343,36.978c-0.125,0-0.584-0.259-1.13-1.04
			c0.688,0.032,1.573,0.029,2.266-0.004C52.933,36.717,52.469,36.978,52.343,36.978z M53.934,35.178
			c-1.053,0.08-2.136,0.082-3.177,0.004c-0.122-0.234-0.245-0.501-0.362-0.8c1.181,0.134,2.694,0.126,3.898-0.003
			C54.178,34.676,54.055,34.943,53.934,35.178z M57.47,28.543c0.936,0.623,1.896,1.127,2.811,2.176
			c0.809,0.928,0.992,1.432,0.992,1.701c0,0.078-0.017,0.135-0.035,0.177c-0.123,0.257-0.56,0.294-0.902,0.284
			c-0.163-0.007-0.315-0.016-0.465-0.026c-0.152-0.636-0.715-1.992-2.109-3.204c-0.016-0.016-0.041-0.016-0.056,0
			c-0.016,0.016-0.015,0.041,0,0.058c1.18,1.288,1.691,2.499,1.838,3.12c-1.366-0.133-2.176-0.474-2.352-1
			c-0.004-0.013-0.011-0.023-0.017-0.032c-0.274-1.089-0.973-2.449-1.719-3.199c-0.016-0.017-0.041-0.018-0.057-0.003
			c-0.017,0.016-0.017,0.041-0.002,0.059c0.578,0.672,1.18,1.982,1.454,3.051c-1.528-0.21-1.975-0.939-2.354-1.798
			c-0.306-0.692-0.379-1.308-0.379-1.892c0-0.264,0.016-0.522,0.031-0.775c0.014-0.254,0.027-0.512,0.027-0.771
			c0-0.133-0.016-0.394-0.03-0.617C55.41,27.352,56.39,27.824,57.47,28.543z"/>
		<path d="M52.343,17.047c-6.675,0-12.105,5.431-12.105,12.107c0,6.676,5.431,12.107,12.105,12.107
			c6.678,0,12.107-5.431,12.107-12.107C64.45,22.478,59.021,17.047,52.343,17.047z M52.343,40.847
			c-6.447,0-11.691-5.246-11.691-11.693c0-6.448,5.244-11.693,11.691-11.693c6.448,0,11.694,5.245,11.694,11.693
			C64.037,35.602,58.791,40.847,52.343,40.847z"/>
		<path d="M52.13,57.152c0.058,0.057,0.132,0.088,0.211,0.088s0.153-0.031,0.211-0.088l1.321-1.322
			c0.115-0.117,0.113-0.303-0.001-0.42l-1.322-1.322c-0.054-0.053-0.129-0.082-0.209-0.082s-0.156,0.029-0.211,0.082l-1.32,1.322
			c-0.116,0.117-0.116,0.305,0,0.42L52.13,57.152z M52.341,54.359l1.263,1.262l-1.263,1.262l-1.262-1.262L52.341,54.359z"/>
		<path d="M43.882,18.426c-0.407,0.321-0.794,0.664-1.162,1.029c-0.897-0.704-1.442-1.121-1.446-1.125
			c-0.06-0.051-0.135-0.078-0.215-0.078c-0.102,0-0.202,0.046-0.271,0.127l-0.721,0.828c-0.129,0.148-0.12,0.368,0.019,0.49
			c0.006,0.006,0.491,0.484,1.313,1.275c-0.318,0.424-0.611,0.867-0.879,1.326c-1.048-0.443-1.681-0.702-1.687-0.705
			c-0.043-0.021-0.09-0.031-0.14-0.031c-0.133,0-0.257,0.081-0.317,0.205l-0.479,0.988c-0.086,0.176-0.02,0.387,0.146,0.468
			c0.007,0.004,0.6,0.337,1.598,0.884c-0.192,0.481-0.357,0.977-0.494,1.482c-1.125-0.158-1.8-0.242-1.807-0.244
			c-0.021-0.004-0.04-0.006-0.061-0.006c-0.163,0-0.304,0.123-0.338,0.293l-0.207,1.077c-0.036,0.194,0.082,0.38,0.263,0.414
			c0.007,0.003,0.667,0.17,1.77,0.442c-0.058,0.503-0.089,1.016-0.092,1.535c-1.128,0.137-1.803,0.227-1.811,0.227
			c-0.183,0.012-0.322,0.183-0.308,0.377l0.074,1.096c0.013,0.186,0.161,0.332,0.337,0.332c0.008,0,0.016,0,0.023,0
			c0.006,0,0.688-0.004,1.823-0.025c0.078,0.535,0.185,1.058,0.321,1.568c-1.052,0.426-1.681,0.688-1.686,0.691
			c-0.176,0.062-0.265,0.264-0.2,0.447l0.36,1.037c0.051,0.146,0.182,0.243,0.329,0.243c0.036,0,0.071-0.006,0.104-0.018
			c0.008-0.003,0.662-0.185,1.753-0.501c0.206,0.473,0.437,0.934,0.691,1.376c-0.907,0.685-1.446,1.099-1.452,1.104
			c-0.072,0.048-0.119,0.122-0.137,0.208c-0.019,0.096,0.001,0.193,0.057,0.275l0.616,0.91c0.068,0.1,0.179,0.162,0.297,0.162
			c0.063,0,0.125-0.02,0.18-0.055c0.006-0.004,0.596-0.35,1.568-0.939c0.321,0.406,0.665,0.793,1.029,1.16
			c-0.703,0.896-1.118,1.439-1.123,1.443c-0.122,0.145-0.101,0.355,0.05,0.486l0.827,0.721c0.069,0.061,0.155,0.094,0.241,0.094
			c0.097,0,0.188-0.041,0.25-0.111c0.005-0.006,0.482-0.492,1.272-1.311c0.428,0.32,0.875,0.615,1.339,0.885
			c-0.444,1.047-0.701,1.676-0.703,1.682c-0.039,0.08-0.044,0.168-0.014,0.25c0.032,0.09,0.098,0.166,0.187,0.209l0.989,0.479
			c0.051,0.023,0.104,0.037,0.16,0.037c0.133,0,0.251-0.07,0.306-0.186c0.004-0.006,0.337-0.598,0.884-1.592
			c0.478,0.189,0.969,0.354,1.471,0.488c-0.156,1.123-0.245,1.795-0.246,1.801c-0.017,0.086,0.002,0.174,0.053,0.248
			c0.053,0.08,0.137,0.133,0.233,0.152l1.077,0.207c0.025,0.004,0.048,0.006,0.072,0.006c0.169,0,0.312-0.113,0.343-0.268
			c0.001-0.008,0.171-0.668,0.442-1.768c0.159,0.02,0.318,0.035,0.479,0.049v2.576c0,0.518-1.766,0.689-3.014,0.828l-0.464,0.053
			c-0.728,0.082-1.239,0.311-1.515,0.676c-0.251,0.338-0.205,0.664-0.2,0.699h0.028h12.539h0.03
			c0.005-0.035,0.052-0.361-0.202-0.699c-0.275-0.365-0.783-0.594-1.513-0.676l-0.465-0.053c-1.248-0.139-3.015-0.311-3.015-0.828
			v-0.184l-0.527,0.037c-0.015,0-0.029,0-0.045,0c-0.324,0-0.595-0.24-0.622-0.551c-0.009-0.07-0.099-0.748-0.231-1.84
			c0.091,0.004,0.184,0.004,0.274,0.004c0.137,1.127,0.226,1.801,0.226,1.809c0.014,0.174,0.169,0.309,0.354,0.309
			c0.009,0,0.018,0,0.025,0l1.095-0.076c0.099-0.008,0.19-0.053,0.253-0.125c0.058-0.064,0.085-0.148,0.08-0.232
			c0-0.008-0.004-0.689-0.025-1.822c0.53-0.076,1.051-0.184,1.559-0.32c0.424,1.053,0.684,1.68,0.688,1.686
			c0.047,0.133,0.176,0.221,0.323,0.221c0.042,0,0.083-0.006,0.124-0.021l1.036-0.357c0.094-0.033,0.167-0.098,0.21-0.184
			c0.04-0.08,0.046-0.17,0.018-0.252c-0.003-0.008-0.184-0.662-0.5-1.752c0.476-0.205,0.938-0.438,1.385-0.693
			c0.682,0.908,1.096,1.449,1.101,1.453c0.06,0.09,0.164,0.145,0.276,0.145c0.074,0,0.146-0.023,0.208-0.066l0.909-0.613
			c0.081-0.057,0.137-0.139,0.155-0.23c0.019-0.088,0.001-0.174-0.048-0.248c-0.004-0.006-0.351-0.594-0.938-1.566
			c0.406-0.324,0.795-0.668,1.164-1.033c0.897,0.701,1.438,1.115,1.445,1.121c0.059,0.051,0.133,0.076,0.213,0.076
			c0.104,0,0.204-0.045,0.273-0.127l0.721-0.828c0.064-0.074,0.099-0.172,0.091-0.266c-0.007-0.088-0.048-0.166-0.11-0.223
			c-0.006-0.006-0.49-0.484-1.311-1.272c0.316-0.425,0.609-0.868,0.877-1.328c1.048,0.444,1.676,0.704,1.682,0.706
			c0.045,0.021,0.091,0.033,0.139,0.033c0.133,0,0.26-0.082,0.322-0.207l0.476-0.986c0.086-0.18,0.021-0.387-0.146-0.469
			c-0.007-0.004-0.598-0.338-1.592-0.885c0.191-0.482,0.355-0.977,0.493-1.484c1.123,0.158,1.796,0.246,1.804,0.247
			c0.021,0.003,0.039,0.005,0.061,0.005c0.163,0,0.305-0.121,0.337-0.291l0.207-1.078c0.017-0.098-0.003-0.197-0.056-0.275
			c-0.05-0.074-0.124-0.122-0.208-0.137c-0.007-0.003-0.664-0.172-1.767-0.446c0.06-0.505,0.09-1.017,0.093-1.535
			c1.126-0.139,1.799-0.229,1.808-0.229c0.185-0.013,0.323-0.184,0.311-0.379l-0.076-1.094c-0.015-0.187-0.163-0.333-0.338-0.333
			c-0.009,0-0.016,0-0.024,0.001c-0.006,0-0.687,0.004-1.821,0.025c-0.077-0.533-0.186-1.055-0.322-1.566
			c1.053-0.428,1.681-0.691,1.687-0.693c0.174-0.062,0.263-0.262,0.201-0.449l-0.362-1.034c-0.05-0.146-0.181-0.245-0.328-0.245
			c-0.036,0-0.071,0.006-0.104,0.018c-0.008,0.003-0.662,0.186-1.756,0.504c-0.204-0.473-0.436-0.932-0.69-1.375
			c0.909-0.686,1.447-1.103,1.453-1.105c0.072-0.049,0.12-0.123,0.137-0.211c0.019-0.095-0.001-0.191-0.058-0.273l-0.615-0.909
			c-0.066-0.103-0.179-0.163-0.297-0.163c-0.064,0-0.128,0.02-0.182,0.056c-0.007,0.004-0.593,0.351-1.569,0.942
			c-0.32-0.406-0.663-0.793-1.027-1.158c0.704-0.898,1.118-1.443,1.123-1.449c0.055-0.064,0.085-0.148,0.078-0.235
			c-0.006-0.097-0.053-0.187-0.127-0.252l-0.828-0.72c-0.069-0.059-0.154-0.092-0.241-0.092c-0.097,0-0.188,0.041-0.249,0.111
			c-0.005,0.004-0.483,0.492-1.275,1.314c-0.428-0.319-0.873-0.615-1.336-0.883c0.443-1.05,0.7-1.682,0.703-1.688
			c0.038-0.078,0.043-0.167,0.015-0.25c-0.031-0.09-0.101-0.165-0.188-0.208l-0.988-0.479c-0.052-0.024-0.107-0.038-0.163-0.038
			c-0.133,0-0.249,0.071-0.304,0.187c-0.004,0.006-0.338,0.599-0.885,1.598c-0.477-0.189-0.968-0.353-1.469-0.488
			c0.158-1.125,0.245-1.803,0.246-1.81c0.017-0.089-0.006-0.179-0.06-0.253c-0.054-0.076-0.136-0.126-0.229-0.144l-1.077-0.208
			c-0.023-0.004-0.047-0.008-0.07-0.008c-0.168,0-0.313,0.115-0.343,0.271c-0.003,0.006-0.171,0.665-0.441,1.771
			c-0.161-0.019-0.322-0.035-0.484-0.047v-2.577c0-0.518,1.767-0.689,3.015-0.828l0.465-0.052c0.729-0.084,1.237-0.313,1.513-0.678
			c0.254-0.338,0.207-0.662,0.202-0.697h-0.03H46.07h-0.028c-0.005,0.035-0.051,0.359,0.2,0.697
			c0.275,0.365,0.787,0.594,1.515,0.678l0.464,0.052c1.248,0.139,3.014,0.311,3.014,0.828v0.177l0.531-0.037
			c0.016-0.001,0.028-0.001,0.043-0.001c0.326,0,0.599,0.241,0.624,0.552c0.01,0.081,0.102,0.76,0.235,1.845
			c-0.093-0.001-0.183-0.003-0.273-0.003c-0.139-1.129-0.231-1.807-0.232-1.813c-0.012-0.176-0.166-0.311-0.354-0.311
			c-0.009,0-0.016,0-0.024,0l-1.094,0.077c-0.099,0.007-0.191,0.052-0.254,0.125c-0.057,0.067-0.085,0.149-0.079,0.234
			c0.002,0.008,0.006,0.687,0.028,1.826c-0.528,0.077-1.048,0.183-1.556,0.317c-0.425-1.054-0.689-1.68-0.692-1.688
			c-0.045-0.133-0.177-0.223-0.326-0.223c-0.04,0-0.083,0.007-0.123,0.021l-1.035,0.357c-0.185,0.066-0.287,0.26-0.227,0.436
			c0.003,0.008,0.184,0.664,0.502,1.756c-0.475,0.206-0.936,0.438-1.381,0.693c-0.686-0.908-1.102-1.449-1.107-1.455
			c-0.059-0.09-0.161-0.143-0.276-0.143c-0.073,0-0.146,0.021-0.208,0.064l-0.906,0.614c-0.083,0.056-0.139,0.137-0.156,0.231
			c-0.018,0.087,0,0.174,0.048,0.246C42.944,16.859,43.292,17.448,43.882,18.426z M52.343,41.916c-7.036,0-12.76-5.724-12.76-12.761
			s5.724-12.762,12.76-12.762c7.037,0,12.763,5.725,12.763,12.762S59.38,41.916,52.343,41.916z"/>
		<path d="M40.026,57.583c-0.075,0.023-0.152,0.047-0.236,0.068l-0.006,0.002l-0.001-0.006c-0.139-0.705-0.256-1.334-0.359-1.916
			l-0.002-0.006l0.005-0.002c0.101-0.033,0.183-0.059,0.256-0.078c-0.004-0.027-0.025-0.143-0.03-0.195
			c-0.35,0.117-0.668,0.227-1,0.348v0.006c0.013,0.063,0.024,0.129,0.03,0.188l0.267-0.092l0.001,0.006
			c0.105,0.551,0.214,1.115,0.37,1.916v0.004l-0.004,0.002c-0.071,0.025-0.147,0.055-0.241,0.088l-0.003,0.004l-0.001-0.004
			c0.006,0.031,0.025,0.131,0.035,0.184c0.365-0.137,0.686-0.242,0.978-0.33c-0.014-0.063-0.026-0.127-0.033-0.193L40.026,57.583z"
			/>
		<path d="M41.882,56.027l-0.019-0.133c-0.055-0.363-0.151-0.582-0.317-0.713c-0.117-0.096-0.264-0.146-0.438-0.146
			c-0.068,0-0.145,0.01-0.22,0.025c-0.252,0.049-0.455,0.176-0.57,0.357c-0.119,0.193-0.152,0.41-0.109,0.705
			c0.017,0.098,0.032,0.197,0.047,0.291l0.055,0.348c0.02,0.129,0.07,0.322,0.137,0.455c0.144,0.279,0.411,0.338,0.611,0.338
			c0.064,0,0.131-0.006,0.196-0.018c0.283-0.053,0.479-0.162,0.597-0.332c0.12-0.174,0.146-0.385,0.097-0.729
			C41.925,56.312,41.899,56.15,41.882,56.027z M41.209,57.132c-0.024,0.004-0.048,0.006-0.07,0.006
			c-0.205,0-0.263-0.186-0.296-0.387c-0.017-0.105-0.032-0.213-0.048-0.318l-0.008-0.049c-0.024-0.158-0.05-0.32-0.072-0.461v-0.004
			c-0.011-0.094-0.046-0.379,0.25-0.436c0.03-0.006,0.059-0.008,0.086-0.008c0.211,0,0.239,0.186,0.262,0.338l0.002,0.02
			c0.041,0.266,0.082,0.543,0.123,0.814C41.463,56.818,41.502,57.076,41.209,57.132z"/>
		<path d="M35.907,56.929c0.063,0.285,0.291,1.236,0.313,1.316l0.001,0.002l-0.004,0.004h-0.003c-0.005,0-0.032-0.025-0.688-0.684
			c-0.121-0.121-0.234-0.234-0.31-0.311c-0.05,0.023-0.1,0.049-0.15,0.072c-0.098,0.045-0.198,0.094-0.297,0.139
			c0.191,0.801,0.362,1.508,0.54,2.219c0.137-0.066,0.27-0.133,0.404-0.193c-0.025-0.102-0.353-1.418-0.356-1.445l-0.002-0.006
			h0.007c0.003,0,0.008,0,0.505,0.51c0.263,0.264,0.521,0.527,0.583,0.592c0.104-0.049,0.238-0.111,0.371-0.164
			c-0.174-0.768-0.33-1.502-0.481-2.242C36.293,56.757,35.992,56.896,35.907,56.929z"/>
		<path d="M38.444,57.259c-0.096-0.086-0.253-0.145-0.421-0.154l-0.303-0.025c-0.152-0.012-0.316-0.041-0.337-0.207
			c-0.005-0.029-0.017-0.18,0.144-0.275c0.033-0.016,0.068-0.031,0.104-0.041c0.037-0.012,0.076-0.016,0.115-0.016
			c0.127,0,0.241,0.059,0.311,0.16l0.332-0.336c-0.159-0.154-0.332-0.23-0.53-0.23c-0.082,0-0.172,0.014-0.264,0.039
			c-0.088,0.025-0.167,0.059-0.239,0.096c-0.007,0.006-0.013,0.01-0.019,0.014l-0.01,0.004c-0.277,0.164-0.418,0.436-0.377,0.73
			c0.06,0.443,0.382,0.512,0.732,0.547c0.372,0.037,0.47,0.055,0.494,0.232c0.022,0.172-0.096,0.268-0.17,0.311l-0.018,0.012
			c-0.033,0.018-0.066,0.033-0.094,0.039c-0.045,0.014-0.089,0.02-0.131,0.02c-0.142,0-0.264-0.072-0.342-0.207l-0.343,0.348
			c0.162,0.193,0.321,0.279,0.531,0.279c0.101,0,0.217-0.02,0.357-0.061c0.065-0.018,0.147-0.053,0.222-0.094l0.023-0.014
			c0.071-0.047,0.126-0.088,0.169-0.129c0.29-0.281,0.248-0.582,0.234-0.682C38.593,57.416,38.487,57.3,38.444,57.259z"/>
		<path d="M27.945,60.488c-0.134,0.037-0.438,0.109-0.482,0.121c0.134,0.434,0.272,0.875,0.407,1.303l0.063,0.195
			c0.054,0.17,0.057,0.301,0.006,0.389c-0.053,0.092-0.147,0.115-0.19,0.125h-0.002c-0.032,0.008-0.063,0.012-0.089,0.012
			c-0.239,0-0.323-0.264-0.358-0.377c-0.146-0.449-0.315-0.979-0.47-1.49c-0.156,0.031-0.325,0.064-0.501,0.088
			c0.168,0.535,0.338,1.066,0.469,1.471c0.07,0.225,0.169,0.477,0.444,0.637c0.101,0.059,0.232,0.09,0.382,0.09
			c0.091,0,0.188-0.012,0.282-0.033c0.22-0.057,0.382-0.162,0.481-0.32c0.163-0.252,0.057-0.588,0.017-0.715
			C28.262,61.533,28.1,61.005,27.945,60.488z"/>
		<path d="M29.504,60.382l0.005-0.002c0.061-0.025,0.396-0.158,0.507-0.199l-0.103-0.398c-0.547,0.227-1.038,0.41-1.506,0.561
			c0.011,0.039,0.087,0.299,0.109,0.398c0.09-0.031,0.172-0.059,0.25-0.086c0.098-0.033,0.188-0.064,0.277-0.092l0.005-0.004
			l0.001,0.006c0.173,0.604,0.351,1.227,0.534,1.848c0.114-0.041,0.402-0.152,0.441-0.168c-0.191-0.67-0.362-1.279-0.52-1.859
			L29.504,60.382z"/>
		<path d="M32.51,59.039l-0.002-0.01c-0.025-0.088-0.085-0.316-0.097-0.385c-0.641,0.311-1.093,0.521-1.512,0.705
			c0.024,0.088,0.094,0.352,0.105,0.395l0.076-0.033c0.145-0.066,0.297-0.135,0.45-0.201l0.006-0.002l0.002,0.006
			c0.146,0.523,0.304,1.086,0.512,1.818c0.136-0.064,0.406-0.191,0.443-0.207c-0.163-0.588-0.337-1.213-0.499-1.838v-0.006h0.003
			C32.003,59.279,32.397,59.087,32.51,59.039z"/>
		<path d="M34.769,59.519c-0.313,0.156-1.001,0.494-1.001,0.494l-0.006,0.002l-0.055-0.219c-0.027-0.104-0.056-0.211-0.078-0.322
			v-0.006h0.004c0.085-0.043,0.507-0.252,0.638-0.313c-0.009-0.037-0.068-0.291-0.089-0.395c-0.126,0.061-0.653,0.313-0.658,0.316
			l-0.007,0.002l-0.018-0.074c-0.017-0.072-0.035-0.143-0.053-0.215l-0.047-0.203l0.068-0.035c0.293-0.145,0.596-0.295,0.896-0.434
			l-0.037-0.162c-0.02-0.076-0.038-0.158-0.05-0.234c-0.242,0.115-0.485,0.236-0.721,0.35l-0.022,0.012
			c-0.218,0.107-0.447,0.221-0.676,0.326c0.225,0.887,0.407,1.594,0.575,2.227l0.409-0.205c0.295-0.152,0.662-0.338,1.016-0.508
			l-0.024-0.109C34.807,59.71,34.785,59.615,34.769,59.519z"/>
		<path d="M68.741,56.91c-0.337-0.152-1.035-0.439-1.101-0.467l-0.063,0.172c0.076,0.027,0.289,0.119,0.292,0.121l0.004,0.002v0.004
			l-0.547,1.867l-0.004-0.002l-0.268-0.096l-0.058,0.189c0.336,0.121,0.693,0.264,1.092,0.438l0.057-0.18
			c-0.065-0.029-0.288-0.129-0.291-0.129l-0.003-0.004l0.001-0.004c0.211-0.793,0.375-1.354,0.547-1.869l0.002-0.004l0.004,0.002
			c0.059,0.021,0.253,0.098,0.286,0.111L68.741,56.91z"/>
		<path d="M73.156,59.074c-0.211,0.279-1.011,1.352-1.019,1.365l-0.01,0.012v-0.016c0-0.014,0.038-1.383,0.06-1.836
			c-0.035-0.018-0.363-0.191-0.497-0.275c-0.004,0.145-0.026,1.895-0.051,2.592c0.036,0.018,0.387,0.199,0.528,0.271l1.476-1.883
			C73.531,59.257,73.196,59.093,73.156,59.074z"/>
		<path d="M74.337,60.529l0.242-0.625h0.005l0.257,0.111l0.077-0.178l-1.042-0.43l-0.08,0.186l0.284,0.119l-0.001,0.006
			l-0.695,1.869l-0.006-0.002l-0.255-0.102c-0.01,0.021-0.045,0.115-0.065,0.156c0.31,0.143,0.65,0.291,1.013,0.438l0.072-0.174
			l-0.272-0.121l0.002-0.004C74.021,61.382,74.18,60.957,74.337,60.529z"/>
		<path d="M69.845,57.412c-0.133-0.057-0.257-0.086-0.367-0.09h-0.022c-0.29,0-0.498,0.193-0.6,0.557l-0.191,0.678
			c-0.129,0.461-0.041,0.639,0.016,0.756c0.098,0.191,0.255,0.324,0.507,0.436c0.08,0.033,0.201,0.07,0.328,0.074h0.025
			c0.058,0.002,0.111-0.008,0.161-0.021c0.212-0.068,0.287-0.211,0.338-0.307l0.004-0.006c0.034-0.076,0.045-0.1,0.091-0.234
			l-0.462-0.209c-0.063,0.225-0.153,0.328-0.281,0.328c-0.033-0.002-0.072-0.012-0.11-0.025c-0.274-0.119-0.21-0.361-0.173-0.492
			l0.241-0.861c0.018-0.061,0.053-0.172,0.156-0.215c0.027-0.01,0.056-0.016,0.093-0.016h0.012c0.039,0.002,0.078,0.01,0.11,0.023
			c0.123,0.051,0.247,0.174,0.153,0.465l0.46,0.207c0.052-0.207,0.09-0.475-0.053-0.695C70.147,57.554,69.932,57.447,69.845,57.412z
			"/>
		<path d="M75.743,60.564h0.014c0.032,0.002,0.067,0.008,0.104,0.018c0.188,0.055,0.287,0.225,0.302,0.365l0.44-0.123
			c-0.092-0.326-0.283-0.521-0.6-0.611c-0.091-0.027-0.177-0.041-0.259-0.045h-0.028c-0.311,0-0.558,0.172-0.658,0.459
			c-0.153,0.441,0.093,0.678,0.38,0.902c0.305,0.238,0.38,0.307,0.319,0.48c-0.045,0.129-0.146,0.193-0.298,0.195
			c-0.035-0.002-0.074-0.008-0.11-0.016c-0.201-0.063-0.315-0.215-0.319-0.432l-0.46,0.131c0.079,0.438,0.304,0.582,0.665,0.684
			c0.068,0.02,0.153,0.035,0.233,0.035c0.012,0,0.026,0,0.041,0c0.005,0,0.009,0,0.013,0c0.065,0,0.127-0.006,0.182-0.02
			c0.381-0.102,0.487-0.398,0.52-0.498c0.075-0.217,0.022-0.391,0.012-0.424c-0.049-0.152-0.181-0.291-0.288-0.371l-0.25-0.188
			c-0.137-0.104-0.255-0.211-0.198-0.375C75.518,60.681,75.58,60.564,75.743,60.564z"/>
		<path d="M66.573,57l-0.24-0.184c-0.12-0.094-0.244-0.207-0.188-0.369h0.001c0.006-0.018,0.059-0.172,0.244-0.172
			c0.035,0.002,0.069,0.008,0.105,0.018c0.16,0.047,0.274,0.191,0.287,0.361l0.427-0.127c-0.088-0.32-0.27-0.512-0.573-0.602
			c-0.084-0.025-0.165-0.037-0.241-0.041h-0.03c-0.306-0.002-0.545,0.17-0.643,0.457c-0.151,0.438,0.086,0.674,0.363,0.895
			c0.289,0.234,0.362,0.303,0.305,0.477c-0.059,0.17-0.202,0.195-0.282,0.193h-0.02c-0.036-0.002-0.068-0.008-0.097-0.016
			c-0.189-0.055-0.3-0.211-0.306-0.426l-0.442,0.133c0.067,0.381,0.235,0.557,0.639,0.678c0.064,0.018,0.15,0.031,0.228,0.033h0.025
			c0.081,0,0.144-0.01,0.197-0.023c0.366-0.098,0.469-0.395,0.502-0.494c0.073-0.207,0.031-0.375,0.016-0.422
			C66.813,57.24,66.709,57.101,66.573,57z"/>
		<path d="M81.012,58.255c-0.802-1.26-3.758-2.363-7.907-2.953c-0.139-0.018-0.139-0.018-0.139-0.018l-0.486,2.102l-0.049-0.021
			c-0.464-0.227-0.969-0.475-1.542-0.766c-3.74-1.883-6.639-2.875-8.384-2.875c-0.495,0-0.896,0.082-1.187,0.242
			c-0.356,0.197-0.567,0.518-0.606,0.924c-0.093,0.924-0.279,2.543-0.391,3.51l-0.032,0.277c-0.013,0.107-0.021,0.191-0.029,0.256
			c-0.013,0.066-0.02,0.133-0.021,0.195v0.004l0,0c-0.036,0.939,0.934,1.383,1.854,1.762c-0.497,0.191-1.063,0.365-1.687,0.523
			c-0.987-0.465-1.959-0.938-2.915-1.414c0.26-0.199,0.561-0.375,0.848-0.545c0.492-0.293,0.955-0.568,1.177-0.904
			c0.438-0.668,0.414-1.32-0.063-1.742c-0.093-0.08-0.201-0.148-0.318-0.203l0.002-0.004l-0.011-0.006
			c-0.55-0.291-1.833-0.969-3.066-0.98c1.438-0.949,2.813-1.926,4.11-2.934c0.712,0.316,1.451,0.48,2.202,0.48
			c2.775-0.002,5.378-2.285,6.219-4.416c-0.405,0.354-1.236,0.406-2.194,0.467l-0.017,0.002c-0.705,0.049-1.506,0.102-2.212,0.289
			c-0.151,0.041-0.299,0.094-0.445,0.15c0.402-0.381,0.794-0.766,1.175-1.156c0.508,0.135,1.014,0.205,1.507,0.205
			c3.173,0,5.373-2.77,5.763-4.789c-0.305,0.35-1.056,0.482-1.922,0.635c-0.656,0.117-1.4,0.248-2.043,0.498
			c-0.189,0.072-0.37,0.162-0.545,0.264c0.369-0.488,0.723-0.98,1.057-1.482c0.287,0.041,0.574,0.063,0.858,0.063h0.001
			c0.866,0,1.695-0.191,2.463-0.57c0.006-0.004,0.013-0.008,0.018-0.01c0.008-0.004,0.015-0.008,0.022-0.012l0.025-0.012
			c0.018-0.01,0.035-0.018,0.053-0.027c0.035-0.02,0.069-0.039,0.104-0.057c0.003-0.002,0.006-0.002,0.009-0.004
			c0.002,0,0.005-0.004,0.008-0.004c1.216-0.676,2.24-1.832,2.811-3.174c0.197-0.471,0.331-0.953,0.388-1.396
			c-0.278,0.373-1.009,0.57-1.851,0.799c-0.642,0.172-1.368,0.369-1.988,0.676c-0.503,0.248-0.938,0.604-1.333,1.021
			c0.304-0.598,0.584-1.207,0.837-1.826c0.118,0.012,0.24,0.02,0.362,0.02c1.363,0,2.679-0.742,3.518-1.982
			c0.403-0.598,0.645-1.184,0.879-1.752c0.274-0.666,0.53-1.295,1.018-1.806c-0.549,0.005-1.916,0.124-3.291,1.058
			c-0.57,0.385-1.062,0.859-1.477,1.414c0.146-0.572,0.272-1.152,0.374-1.742c1.532-0.102,2.9-1.168,3.517-2.76
			c0.257-0.666,0.358-1.282,0.456-1.877l0.002-0.007c0.113-0.691,0.222-1.345,0.57-1.927c-0.527,0.115-1.816,0.508-2.94,1.691
			c-0.567,0.598-0.999,1.301-1.294,2.098c0.036-0.689,0.045-1.39,0.021-2.102c1.26-0.531,2.181-1.436,2.669-2.627
			c0.648-1.584,0.392-3.245-0.031-4.207c-0.032,0.359-0.444,0.733-0.918,1.165l-0.004,0.003c-0.388,0.352-0.827,0.752-1.158,1.229
			c-0.453,0.652-0.632,1.502-0.7,2.418c-0.084-0.766-0.202-1.547-0.354-2.34c1.075-0.819,1.733-1.91,1.903-3.17
			c0.224-1.664-0.432-3.178-1.07-3.988c0.058,0.351-0.243,0.809-0.587,1.337c-0.282,0.432-0.603,0.923-0.797,1.454
			c-0.149,0.408-0.202,0.852-0.192,1.319c-0.154-0.526-0.323-1.058-0.508-1.595c0.965-0.904,1.49-2.033,1.519-3.275
			c0.036-1.682-0.807-3.128-1.553-3.873c0.099,0.341-0.142,0.822-0.42,1.375c-0.225,0.451-0.481,0.965-0.609,1.51
			c-0.111,0.468-0.096,0.969-0.004,1.488c-0.213-0.504-0.439-1.012-0.678-1.525c0.765-0.886,1.125-1.941,1.043-3.061
			c-0.119-1.576-1.039-2.867-1.807-3.512c0.128,0.314-0.024,0.799-0.198,1.355l-0.003,0.008c-0.132,0.419-0.282,0.895-0.338,1.381
			c-0.06,0.502,0.019,1.026,0.182,1.569c-0.095-0.179-0.189-0.356-0.287-0.536c-0.151-1.643-0.79-2.827-1.944-3.609
			c-0.567-0.383-1.142-0.586-1.649-0.766c-0.596-0.211-1.071-0.381-1.289-0.753c-0.188,1.323,0.426,3.129,1.944,3.897
			c0.466,0.236,0.896,0.426,1.242,0.578c0.638,0.281,1.136,0.502,1.479,0.815c0.35,0.643,0.675,1.278,0.983,1.907
			c-0.057-0.06-0.113-0.119-0.174-0.176c-0.048-0.043-0.095-0.09-0.146-0.131c-0.459-0.374-1.046-0.691-1.565-0.973l-0.004-0.002
			c-0.688-0.374-1.283-0.696-1.429-1.051c-0.213,0.975,0.019,2.519,1.021,3.808c0.639,0.819,1.808,1.795,3.771,1.874
			c0.35,0.9,0.655,1.785,0.919,2.658c-0.354-0.443-0.827-0.861-1.246-1.23l-0.008-0.006c-0.577-0.508-1.079-0.948-1.135-1.318
			c-0.416,0.84-0.563,2.302,0.039,3.707c0.415,0.967,1.324,2.232,3.296,2.845c0.159,0.95,0.267,1.886,0.325,2.802
			c-0.009-0.018-0.017-0.035-0.025-0.053c-0.282-0.537-0.703-1.06-1.074-1.52c-0.482-0.602-0.901-1.123-0.885-1.5
			c-0.606,0.805-1.05,2.305-0.685,3.877c0.232,1.002,0.874,2.362,2.595,3.319c-0.09,0.871-0.227,1.724-0.405,2.561
			c-0.119-0.454-0.293-0.909-0.453-1.324l-0.002-0.005c-0.279-0.724-0.521-1.353-0.37-1.716c-0.957,0.644-1.969,2.05-2.102,3.771
			c-0.075,0.992,0.13,2.424,1.468,3.785c-0.47,1.076-1.019,2.121-1.639,3.135c0.048-0.168,0.086-0.338,0.111-0.51
			c0.099-0.686,0.064-1.439,0.035-2.107c-0.038-0.865-0.071-1.619,0.19-1.97c-1.117,0.441-2.533,1.695-3.213,3.525
			c-0.404,1.092-0.67,2.77,0.263,4.676c-0.722,0.857-1.495,1.688-2.318,2.494c0.207-0.326,0.379-0.662,0.498-1.016
			c0.236-0.703,0.338-1.502,0.429-2.209l0.001-0.004c0.122-0.951,0.229-1.771,0.603-2.154c-0.972,0.316-2.003,0.984-2.839,1.836
			c-0.004,0.004-0.006,0.008-0.01,0.012l-0.021,0.021c-0.03,0.031-0.064,0.066-0.097,0.102c-0.007,0.006-0.011,0.012-0.016,0.018
			l-0.008,0.008c-0.037,0.041-0.073,0.082-0.11,0.121c-0.003,0.004-0.005,0.006-0.008,0.008c-0.002,0.004-0.005,0.01-0.007,0.012
			c-0.46,0.52-0.837,1.088-1.122,1.688c-0.65,1.375-0.741,2.816-0.269,4.193c-1.778,1.434-3.719,2.797-5.791,4.104v-1.344
			c0-0.008,0-0.016-0.002-0.023l0.025,0.006c0.178-0.537,0.857-0.799,1.574-1.078c0.498-0.191,1.013-0.389,1.405-0.701
			c0.467-0.375,0.726-0.783,0.768-1.221c0.056-0.553-0.264-0.934-0.277-0.947c-0.05-0.053-0.103-0.098-0.156-0.143h0.003
			c-0.558-0.498-2.782-1.203-3.603-1.203c-0.03,0-0.058,0.002-0.086,0.004c-0.527,0.035-0.957,0.166-1.336,0.281
			c-0.355,0.109-0.666,0.207-1.012,0.217c-0.345-0.01-0.717-0.107-1.073-0.217c-0.379-0.115-0.809-0.246-1.339-0.281
			c-0.025,0-0.051-0.004-0.078-0.004c-0.822,0-3.051,0.705-3.606,1.203h0.003c-0.058,0.045-0.111,0.094-0.165,0.15
			c-0.012,0.016-0.324,0.393-0.271,0.939c0.043,0.438,0.302,0.846,0.768,1.221c0.396,0.316,0.911,0.516,1.415,0.707
			c0.68,0.264,1.319,0.51,1.503,1.004l0.015-0.004c-0.002,0.029-0.005,0.059-0.005,0.09v1.34c-2.069-1.307-4.007-2.668-5.784-4.1
			c0.473-1.377,0.382-2.818-0.269-4.193c-0.284-0.6-0.661-1.168-1.12-1.688c-0.002-0.002-0.006-0.008-0.009-0.012
			c-0.002-0.002-0.004-0.004-0.007-0.008c-0.037-0.039-0.073-0.08-0.111-0.121l-0.007-0.008c-0.006-0.006-0.011-0.012-0.016-0.018
			c-0.032-0.035-0.065-0.07-0.099-0.102l-0.02-0.021c-0.003-0.004-0.006-0.008-0.01-0.012c-0.836-0.852-1.868-1.52-2.841-1.836
			c0.376,0.383,0.481,1.203,0.605,2.154v0.004c0.091,0.707,0.192,1.506,0.428,2.209c0.12,0.354,0.291,0.689,0.499,1.016
			c-0.823-0.807-1.599-1.637-2.318-2.494c0.932-1.906,0.667-3.584,0.263-4.676c-0.68-1.83-2.096-3.084-3.214-3.525
			c0.263,0.351,0.229,1.105,0.191,1.97c-0.03,0.668-0.064,1.422,0.035,2.107c0.025,0.172,0.063,0.342,0.11,0.51
			c-0.619-1.014-1.167-2.059-1.638-3.135c1.337-1.361,1.543-2.792,1.468-3.785c-0.133-1.721-1.146-3.127-2.102-3.771
			c0.151,0.363-0.092,0.992-0.371,1.716l-0.001,0.005c-0.159,0.415-0.334,0.87-0.452,1.324c-0.181-0.837-0.317-1.689-0.407-2.561
			c1.722-0.957,2.362-2.317,2.595-3.319c0.365-1.572-0.077-3.072-0.684-3.877c0.017,0.377-0.403,0.898-0.887,1.5
			c-0.37,0.46-0.791,0.982-1.072,1.52c-0.01,0.018-0.016,0.035-0.025,0.053c0.059-0.916,0.167-1.852,0.325-2.802
			c1.972-0.612,2.881-1.878,3.295-2.845c0.604-1.405,0.455-2.867,0.039-3.707c-0.056,0.37-0.558,0.811-1.135,1.318l-0.007,0.006
			c-0.42,0.369-0.892,0.787-1.247,1.23c0.265-0.873,0.569-1.758,0.919-2.658c1.966-0.079,3.134-1.055,3.772-1.874
			c1.002-1.289,1.234-2.833,1.021-3.808c-0.146,0.354-0.741,0.677-1.428,1.051l-0.006,0.002c-0.518,0.281-1.105,0.599-1.566,0.973
			c-0.049,0.041-0.095,0.088-0.144,0.131c-0.062,0.057-0.117,0.116-0.175,0.176c0.308-0.629,0.635-1.265,0.984-1.907
			c0.343-0.313,0.841-0.534,1.478-0.815c0.347-0.152,0.777-0.342,1.242-0.578c1.518-0.769,2.132-2.574,1.944-3.897
			c-0.218,0.372-0.691,0.542-1.289,0.753c-0.507,0.18-1.082,0.383-1.649,0.766c-1.153,0.782-1.792,1.967-1.944,3.609
			c-0.097,0.18-0.191,0.357-0.285,0.536c0.162-0.543,0.239-1.068,0.181-1.569c-0.056-0.486-0.207-0.962-0.338-1.381l-0.003-0.008
			c-0.175-0.557-0.326-1.041-0.198-1.355c-0.769,0.645-1.688,1.936-1.807,3.512c-0.083,1.119,0.277,2.175,1.043,3.061
			c-0.238,0.514-0.465,1.021-0.679,1.525c0.092-0.52,0.108-1.021-0.003-1.488c-0.129-0.545-0.385-1.059-0.611-1.51
			c-0.277-0.553-0.518-1.034-0.417-1.375c-0.747,0.745-1.59,2.191-1.554,3.873c0.028,1.242,0.553,2.371,1.519,3.275
			c-0.185,0.537-0.354,1.068-0.508,1.595c0.01-0.468-0.043-0.911-0.193-1.319c-0.193-0.531-0.514-1.022-0.797-1.454
			c-0.344-0.528-0.643-0.986-0.587-1.337c-0.638,0.811-1.293,2.324-1.069,3.988c0.168,1.26,0.827,2.351,1.903,3.17
			c-0.153,0.793-0.271,1.574-0.354,2.34c-0.07-0.916-0.247-1.766-0.7-2.418c-0.331-0.477-0.771-0.877-1.159-1.229l-0.003-0.003
			c-0.474-0.432-0.887-0.806-0.919-1.165c-0.423,0.962-0.679,2.623-0.031,4.207c0.488,1.191,1.408,2.096,2.669,2.627
			c-0.023,0.712-0.016,1.412,0.021,2.102c-0.296-0.797-0.727-1.5-1.295-2.098c-1.121-1.184-2.413-1.576-2.94-1.691
			c0.35,0.582,0.457,1.235,0.57,1.927l0.002,0.007c0.099,0.595,0.2,1.211,0.456,1.877c0.617,1.592,1.984,2.658,3.518,2.76
			c0.102,0.59,0.228,1.17,0.373,1.742c-0.415-0.555-0.906-1.029-1.476-1.414c-1.376-0.934-2.742-1.053-3.291-1.058
			c0.485,0.511,0.743,1.14,1.018,1.806c0.233,0.568,0.476,1.154,0.879,1.752c0.838,1.24,2.154,1.982,3.518,1.982
			c0.123,0,0.242-0.008,0.361-0.02c0.253,0.619,0.533,1.229,0.838,1.826c-0.395-0.418-0.831-0.773-1.333-1.021
			c-0.619-0.307-1.347-0.504-1.988-0.676c-0.843-0.229-1.573-0.426-1.85-0.799c0.056,0.443,0.189,0.926,0.387,1.396
			c0.569,1.342,1.595,2.498,2.81,3.174c0.003,0,0.006,0.004,0.009,0.004c0.002,0.002,0.005,0.002,0.009,0.004
			c0.033,0.018,0.068,0.037,0.103,0.057c0.019,0.01,0.036,0.018,0.052,0.027l0.027,0.012c0.007,0.004,0.015,0.008,0.021,0.012
			c0.005,0.002,0.012,0.006,0.018,0.01c0.768,0.379,1.598,0.57,2.464,0.57h0.001c0.284,0,0.57-0.021,0.858-0.063
			c0.333,0.502,0.687,0.994,1.057,1.482c-0.176-0.102-0.356-0.191-0.545-0.264c-0.643-0.25-1.386-0.381-2.044-0.498
			c-0.865-0.152-1.616-0.285-1.92-0.635c0.388,2.02,2.588,4.789,5.762,4.789c0.492,0,0.999-0.072,1.507-0.205
			c0.38,0.391,0.772,0.775,1.175,1.156c-0.146-0.057-0.295-0.109-0.445-0.15c-0.707-0.188-1.507-0.24-2.212-0.289l-0.017-0.002
			c-0.958-0.061-1.79-0.113-2.195-0.467c0.842,2.131,3.443,4.414,6.221,4.416c0.749,0,1.489-0.164,2.2-0.48
			c1.3,1.008,2.672,1.984,4.109,2.934c-1.139,0.002-2.303,0.613-2.997,0.98l-0.011,0.006l0.004,0.006
			c-0.118,0.053-0.226,0.121-0.316,0.201c-0.479,0.422-0.503,1.074-0.063,1.742c0.223,0.34,0.689,0.615,1.185,0.908
			c0.273,0.16,0.561,0.332,0.811,0.518c-0.97,0.488-1.955,0.965-2.958,1.438c-0.622-0.158-1.188-0.332-1.686-0.521
			c1-0.41,2.063-0.9,1.827-2.018c-0.007-0.057-0.015-0.125-0.025-0.209c-0.114-0.986-0.322-2.789-0.42-3.779
			c-0.041-0.408-0.251-0.729-0.606-0.924c-0.293-0.16-0.692-0.242-1.188-0.242c-1.743,0-4.641,0.992-8.382,2.875
			c-0.552,0.277-1.056,0.529-1.543,0.766l-0.048,0.023l-0.482-2.107l-0.171,0.021c-4.131,0.592-7.077,1.695-7.881,2.949
			c-0.225,0.355-0.283,0.719-0.174,1.084c0.004,0.012,0.01,0.023,0.014,0.035h-0.002l1.197,3.959
			c0.115,0.377,0.369,0.652,0.758,0.816c0.279,0.117,0.633,0.178,1.05,0.178c1.683,0,4.486-0.99,8.108-2.863
			c2.098-1.086,3.926-1.904,5.404-2.428c0.084,1.129,0.096,2.408,0.096,3.521v0.012h0.007c-0.001,0.029-0.006,0.057-0.006,0.086
			c0,0.205,0.031,0.402,0.094,0.598c-0.655,0.283-1.314,0.564-1.979,0.846c0.477,0.084,0.968,0.344,1.489,0.408
			c0.323-0.143,0.642-0.289,0.96-0.436c0.277,0.324,0.658,0.631,1.141,0.914c0.956,0.561,2.282,1.023,3.946,1.383
			c0.177,0.434,0.435,0.908,0.754,1.445l0.243,0.406l0.091-0.463c0.092-0.463,0.286-0.818,0.521-1.098
			c1.603,0.246,3.351,0.383,4.949,0.387l0,0h0.012h0.013l0,0c1.618-0.004,3.387-0.145,5.005-0.396
			c0.24,0.281,0.435,0.639,0.527,1.107l0.086,0.434l0.006,0.029l0.242-0.406c0.322-0.545,0.585-1.021,0.762-1.463
			c1.643-0.359,2.955-0.824,3.896-1.381c0.469-0.279,0.84-0.58,1.113-0.898c0.319,0.146,0.636,0.293,0.959,0.436
			c0.521-0.064,1.014-0.324,1.491-0.408c-0.666-0.281-1.325-0.563-1.979-0.846c0.062-0.195,0.094-0.393,0.094-0.598
			c0-0.055-0.005-0.107-0.01-0.158c0-1.234,0.009-2.426,0.085-3.469c1.482,0.523,3.318,1.344,5.425,2.436
			c3.624,1.873,6.428,2.863,8.109,2.863c0.417,0,0.769-0.061,1.049-0.178c0.393-0.166,0.646-0.441,0.76-0.816l1.194-3.947
			l0.003-0.012h-0.003c0.005-0.014,0.01-0.023,0.013-0.035C81.296,58.972,81.237,58.609,81.012,58.255z M73.083,27.611
			c0.075-0.723,0.237-1.357,0.481-1.893c0.268-0.588,0.784-1.049,1.2-1.42l0.005-0.006c0.271-0.24,0.504-0.449,0.618-0.64
			l0.016-0.033l0.012,0.036c0.066,0.292,0.264,1.338-0.042,2.537c-0.149,0.58-0.395,1.107-0.729,1.568
			c-0.379,0.524-0.879,0.967-1.482,1.32c0.57-0.787,1.181-2.338,1.324-2.87c-0.306,0.507-0.995,1.87-1.445,2.448
			C73.034,28.375,73.042,28.012,73.083,27.611z M70.375,16.791c0.03-0.629,0.336-1.225,0.58-1.703l0.001-0.002
			c0.159-0.313,0.296-0.58,0.331-0.794l0.005-0.034l0.021,0.029c0.167,0.24,0.727,1.122,0.883,2.321
			c0.075,0.579,0.043,1.143-0.096,1.677c-0.159,0.623-0.469,1.213-0.914,1.754c0.271-0.89,0.298-2.742,0.195-3.375
			c-0.035,0.565-0.18,2.061-0.438,2.937c-0.104-0.251-0.222-0.564-0.322-0.925C70.429,17.996,70.345,17.361,70.375,16.791z
			 M66.565,16.54c-0.568-0.868-0.8-1.851-0.826-2.429v-0.033l0.023,0.021c0.253,0.225,0.636,0.416,1.042,0.619l0.003,0.002
			c0.549,0.274,1.169,0.585,1.586,1.041c0.384,0.422,0.718,0.928,0.993,1.504c0.219,0.456,0.35,0.85,0.421,1.104
			c-0.766-0.528-2.245-1.895-2.444-2.132c0.35,0.601,1.513,1.704,2.096,2.233c-0.615-0.125-1.169-0.35-1.651-0.67
			C67.318,17.476,66.9,17.051,66.565,16.54z M70.185,44.966c0.547-0.094,1.062-0.184,1.393-0.35l0.035-0.014l-0.017,0.035
			c-0.173,0.371-0.668,1.324-1.557,2.148c-0.472,0.436-0.991,0.779-1.544,1.02c-0.659,0.287-1.375,0.432-2.126,0.432
			c-0.155,0-0.314-0.006-0.473-0.018c1.387-0.535,3.082-1.719,3.313-1.916c-0.435,0.23-2.581,1.352-3.705,1.732
			c0.167-0.256,0.461-0.67,0.874-1.117c0.51-0.551,1.059-0.996,1.633-1.328C68.633,45.232,69.457,45.091,70.185,44.966z
			 M71.515,40.652c0.563-0.396,1.272-0.574,1.956-0.75l0.011-0.002c0.55-0.141,1.068-0.273,1.437-0.506l0.04-0.025l-0.02,0.043
			c-0.29,0.656-0.803,1.609-1.61,2.426c-1.062,1.07-2.326,1.611-3.76,1.611c-0.052,0-0.106,0-0.162-0.002
			c1.202-0.57,2.946-1.787,3.366-2.152c-0.921,0.488-2.509,1.451-3.535,1.869c0.146-0.252,0.387-0.627,0.73-1.049
			C70.444,41.529,70.966,41.037,71.515,40.652z M72.58,36.359c0.424-0.492,0.908-0.911,1.443-1.245
			c0.609-0.38,1.281-0.651,1.997-0.804l0.042-0.01l-0.024,0.035c-0.085,0.142-0.181,0.377-0.304,0.676v0.002
			c-0.27,0.666-0.677,1.672-1.367,2.496c-0.383,0.453-0.813,0.809-1.28,1.056c-0.51,0.271-1.079,0.42-1.694,0.451
			c0.96-0.644,2.327-2.054,2.997-3.017c-0.612,0.629-2.329,2.195-3.018,2.701c0.147-0.391,0.286-0.785,0.412-1.185
			C72.005,37.106,72.271,36.719,72.58,36.359z M73.031,32.268v-0.014l0.005,0.002c-0.001,0.005-0.003,0.01-0.005,0.014l0.003,0.002
			c0.152-0.438,0.359-0.889,0.636-1.326l-0.002-0.002c-0.001,0.002-0.002,0.004-0.003,0.006l0.002-0.002l-0.026-0.018h0.03
			c0.26-0.41,0.563-0.787,0.906-1.121c0.506-0.494,1.096-0.894,1.753-1.186l0.034-0.016l-0.012,0.037
			c-0.052,0.152-0.091,0.398-0.14,0.709l-0.002,0.011c-0.113,0.698-0.283,1.755-0.771,2.699c-0.269,0.52-0.609,0.957-1.014,1.298
			c-0.469,0.398-1.038,0.678-1.688,0.832c0.732-0.699,1.67-2.188,1.899-2.797c-0.469,0.533-1.27,1.68-1.914,2.261
			c0.022-0.254,0.065-0.521,0.132-0.794C72.902,32.666,72.962,32.467,73.031,32.268z M72.082,21.365
			c0.108-0.627,0.488-1.194,0.793-1.65l0.001-0.004c0.196-0.295,0.366-0.551,0.427-0.761l0.01-0.034l0.016,0.031
			c0.138,0.26,0.585,1.205,0.589,2.42c0.003,0.586-0.1,1.147-0.304,1.672c-0.224,0.572-0.573,1.102-1.037,1.576
			c0.283-0.965,0.538-2.842,0.53-3.203c-0.117,0.621-0.499,2.107-0.782,2.924c-0.078-0.275-0.168-0.639-0.231-1.055
			C71.986,22.578,71.982,21.935,72.082,21.365z M68.693,11.227v-0.004c0.087-0.279,0.168-0.543,0.178-0.742v-0.038l0.025,0.03
			c0.176,0.209,0.772,0.975,1.039,2.072c0.127,0.525,0.157,1.047,0.086,1.55c-0.082,0.585-0.298,1.149-0.645,1.679
			c0.107-1.021-0.188-3.118-0.188-3.118s-0.048,1.899-0.117,2.647c-0.107-0.229-0.211-0.479-0.298-0.732
			c-0.206-0.588-0.331-1.18-0.365-1.714C68.373,12.271,68.551,11.691,68.693,11.227z M66.774,12.677
			c-0.427-0.157-1.015-0.376-1.698-0.753c-0.555-0.305-0.976-0.73-1.255-1.264c-0.215-0.412-0.347-0.898-0.396-1.443l-0.001-0.035
			l0.026,0.018c0.083,0.047,0.232,0.1,0.427,0.165l0.002,0.001c0.404,0.139,1.014,0.35,1.78,0.766
			c0.274,0.148,0.535,0.354,0.777,0.605c0.213,0.227,0.407,0.487,0.576,0.773c0.271,0.463,0.451,0.971,0.488,1.36
			c-0.547-0.824-2.106-1.88-2.106-1.88s1.136,1.062,1.696,1.807c-0.093-0.037-0.197-0.076-0.313-0.119L66.774,12.677z
			 M69.969,23.895c-0.396-0.43-0.701-0.931-0.904-1.492c-0.441-1.221-0.26-2.276-0.221-2.475l0.007-0.034l0.02,0.028
			c0.188,0.265,0.511,0.532,0.852,0.814l0.006,0.004c0.471,0.391,1.005,0.832,1.303,1.369c0.277,0.496,0.484,1.062,0.613,1.68
			c0.086,0.407,0.12,0.759,0.133,1.014c-0.544-0.604-1.573-2.053-1.825-2.478c0.274,0.85,1.103,2.096,1.654,2.71
			C70.954,24.746,70.403,24.363,69.969,23.895z M70.707,30.496c-0.323-0.51-0.536-1.08-0.632-1.694
			c-0.076-0.493-0.078-1.007-0.003-1.522c0.056-0.382,0.155-0.764,0.273-1.051l0.013-0.031l0.013,0.03
			c0.138,0.296,0.41,0.616,0.699,0.954l0.007,0.008c0.402,0.471,0.859,1.005,1.063,1.607c0.162,0.48,0.257,1.01,0.289,1.57
			c-0.007,0.479-0.026,0.957-0.059,1.427c-0.434-0.644-1.154-2.196-1.385-2.863c0.082,0.692,0.656,2.106,1.051,2.938
			C71.483,31.477,71.036,31.016,70.707,30.496z M69.512,35.338c0.098-0.504,0.28-1.004,0.54-1.486
			c0.189-0.354,0.428-0.699,0.652-0.947l0.022-0.023l0.003,0.031c0.034,0.332,0.201,0.724,0.377,1.139
			c0.244,0.576,0.521,1.23,0.514,1.876c-0.002,0.13-0.01,0.263-0.021,0.396c-0.241,0.882-0.53,1.747-0.87,2.59
			c-0.244-1.076-0.313-3.421-0.268-3.916c-0.233,1.022-0.166,2.898-0.017,3.925c-0.44-0.55-0.738-1.138-0.892-1.751
			C69.404,36.581,69.391,35.964,69.512,35.338z M66.053,43.32c0.051-0.691,0.24-1.381,0.563-2.045
			c0.549-1.125,1.395-1.988,1.952-2.385l0.029-0.02l-0.006,0.035c-0.058,0.295-0.037,0.729-0.017,1.232
			c0.036,0.779,0.075,1.662-0.146,2.393c-0.196,0.652-0.512,1.316-0.938,1.975c-0.276,0.43-0.545,0.768-0.752,1.01
			c0-1.018,0.492-2.996,0.645-3.652c-0.265,0.525-0.833,2.508-0.958,3.838C66.121,44.912,65.995,44.109,66.053,43.32z
			 M36.293,15.762c0.415-0.456,1.037-0.767,1.585-1.041l0.004-0.002c0.406-0.203,0.788-0.395,1.041-0.619l0.024-0.021v0.033
			c-0.027,0.578-0.258,1.561-0.827,2.429c-0.335,0.511-0.753,0.936-1.241,1.261c-0.482,0.32-1.038,0.545-1.651,0.67
			c0.583-0.529,1.747-1.633,2.096-2.233c-0.199,0.237-1.68,1.604-2.444,2.132c0.072-0.254,0.2-0.647,0.42-1.104
			C35.574,16.689,35.909,16.184,36.293,15.762z M32.586,18.285c-0.138-0.534-0.171-1.098-0.095-1.677
			c0.155-1.199,0.715-2.081,0.883-2.321l0.02-0.029l0.006,0.034c0.034,0.214,0.172,0.481,0.33,0.794l0.002,0.002
			c0.245,0.479,0.55,1.074,0.582,1.703c0.027,0.57-0.056,1.205-0.248,1.885c-0.102,0.36-0.219,0.674-0.322,0.925
			c-0.258-0.876-0.403-2.371-0.438-2.937c-0.103,0.633-0.077,2.484,0.194,3.375C33.056,19.498,32.746,18.908,32.586,18.285z
			 M30.042,27.762c-0.335-0.461-0.579-0.988-0.729-1.568c-0.306-1.199-0.107-2.245-0.041-2.537l0.01-0.036l0.017,0.033
			c0.114,0.19,0.348,0.399,0.618,0.64l0.006,0.006c0.416,0.371,0.933,0.832,1.199,1.42c0.244,0.535,0.406,1.17,0.481,1.893
			c0.042,0.4,0.05,0.764,0.045,1.049c-0.452-0.578-1.142-1.941-1.446-2.448c0.144,0.532,0.754,2.083,1.322,2.87
			C30.921,28.729,30.421,28.286,30.042,27.762z M36.095,38.906l-0.006-0.035l0.028,0.02c0.558,0.396,1.403,1.26,1.953,2.385
			c0.323,0.664,0.513,1.354,0.563,2.045c0.058,0.789-0.068,1.592-0.373,2.381c-0.125-1.33-0.694-3.313-0.96-3.838
			c0.153,0.656,0.646,2.635,0.648,3.652c-0.209-0.242-0.477-0.58-0.754-1.01c-0.427-0.658-0.742-1.322-0.938-1.975
			c-0.222-0.73-0.183-1.613-0.146-2.393C36.132,39.634,36.151,39.201,36.095,38.906z M33.066,35.927
			c-0.007-0.646,0.27-1.3,0.514-1.876c0.176-0.415,0.342-0.807,0.376-1.139l0.004-0.031l0.021,0.023
			c0.227,0.248,0.465,0.594,0.654,0.947c0.26,0.482,0.441,0.982,0.54,1.486c0.121,0.626,0.106,1.243-0.041,1.834
			c-0.153,0.613-0.452,1.201-0.893,1.751c0.15-1.027,0.218-2.903-0.015-3.925c0.045,0.494-0.024,2.84-0.27,3.916
			c-0.338-0.843-0.628-1.708-0.869-2.59C33.076,36.189,33.068,36.057,33.066,35.927z M32.546,28.797
			c0.202-0.603,0.66-1.137,1.063-1.607l0.007-0.008c0.288-0.338,0.562-0.658,0.697-0.954l0.015-0.03l0.013,0.031
			c0.118,0.287,0.219,0.669,0.274,1.051c0.074,0.516,0.072,1.029-0.004,1.522c-0.097,0.614-0.31,1.185-0.633,1.694
			c-0.329,0.52-0.775,0.98-1.329,1.373c0.396-0.832,0.968-2.246,1.051-2.938c-0.232,0.667-0.952,2.22-1.384,2.863
			c-0.034-0.47-0.055-0.946-0.061-1.427C32.289,29.807,32.383,29.277,32.546,28.797z M34.958,20.74l0.007-0.004
			c0.341-0.282,0.664-0.55,0.852-0.814l0.019-0.028l0.007,0.034c0.04,0.198,0.222,1.254-0.221,2.475
			c-0.203,0.562-0.508,1.063-0.903,1.492c-0.435,0.469-0.985,0.852-1.638,1.141c0.553-0.614,1.381-1.86,1.655-2.71
			c-0.253,0.425-1.281,1.874-1.825,2.478c0.014-0.255,0.047-0.606,0.133-1.014c0.129-0.618,0.336-1.184,0.612-1.68
			C33.953,21.572,34.487,21.131,34.958,20.74z M38.251,10.736c0.241-0.252,0.502-0.457,0.776-0.605
			c0.766-0.416,1.376-0.627,1.779-0.766l0.002-0.001c0.193-0.065,0.346-0.118,0.427-0.165l0.028-0.018l-0.002,0.035
			c-0.048,0.545-0.183,1.031-0.397,1.443c-0.277,0.533-0.7,0.959-1.253,1.264c-0.686,0.377-1.271,0.596-1.699,0.753l-0.003,0.001
			c-0.116,0.043-0.222,0.082-0.313,0.119c0.561-0.745,1.695-1.807,1.695-1.807s-1.557,1.056-2.106,1.88
			c0.038-0.39,0.22-0.897,0.489-1.36C37.842,11.224,38.036,10.963,38.251,10.736z M34.751,12.545
			c0.266-1.098,0.862-1.863,1.039-2.072l0.024-0.03v0.038c0.01,0.199,0.092,0.463,0.178,0.742l0.001,0.004
			c0.143,0.465,0.319,1.045,0.283,1.63c-0.034,0.534-0.159,1.126-0.364,1.714c-0.088,0.254-0.191,0.504-0.298,0.732
			c-0.07-0.748-0.118-2.647-0.118-2.647s-0.294,2.097-0.188,3.118c-0.345-0.529-0.562-1.094-0.644-1.679
			C34.595,13.592,34.624,13.07,34.751,12.545z M31.072,23.039c-0.204-0.524-0.307-1.086-0.304-1.672
			c0.005-1.215,0.451-2.16,0.588-2.42l0.018-0.031l0.009,0.034c0.061,0.21,0.23,0.466,0.427,0.761l0.003,0.004
			c0.304,0.456,0.683,1.023,0.792,1.65c0.099,0.569,0.096,1.213-0.011,1.916c-0.064,0.416-0.152,0.779-0.232,1.055
			c-0.283-0.816-0.664-2.303-0.781-2.924c-0.008,0.361,0.246,2.238,0.529,3.203C31.646,24.141,31.296,23.611,31.072,23.039z
			 M29.246,32.063c-0.488-0.944-0.658-2.001-0.771-2.699l-0.002-0.011c-0.049-0.311-0.089-0.557-0.14-0.709l-0.013-0.037
			l0.036,0.016c0.656,0.292,1.246,0.691,1.752,1.186c0.343,0.334,0.646,0.711,0.904,1.121h0.031l-0.024,0.018v0.002
			c0-0.002-0.002-0.004-0.003-0.006l-0.002,0.002c0.276,0.438,0.483,0.889,0.636,1.326l0.003-0.002c0-0.004-0.003-0.009-0.005-0.014
			l0.006-0.002v0.014c0.068,0.199,0.129,0.398,0.176,0.596c0.066,0.273,0.108,0.54,0.132,0.794
			c-0.645-0.581-1.446-1.728-1.914-2.261c0.23,0.609,1.166,2.098,1.899,2.797c-0.651-0.154-1.221-0.434-1.689-0.832
			C29.855,33.021,29.515,32.583,29.246,32.063z M31.6,38.566c-0.468-0.248-0.898-0.603-1.28-1.056
			c-0.691-0.824-1.098-1.83-1.367-2.496l-0.001-0.002c-0.122-0.299-0.218-0.534-0.304-0.676l-0.024-0.035l0.043,0.01
			c0.716,0.152,1.388,0.424,1.997,0.804c0.534,0.334,1.02,0.753,1.442,1.245c0.309,0.359,0.575,0.747,0.797,1.156
			c0.126,0.4,0.264,0.794,0.411,1.185c-0.688-0.505-2.405-2.072-3.017-2.701c0.669,0.963,2.037,2.373,2.997,3.017
			C32.68,38.986,32.108,38.837,31.6,38.566z M31.358,41.837c-0.808-0.816-1.321-1.77-1.61-2.426l-0.02-0.043l0.04,0.025
			c0.368,0.232,0.886,0.365,1.436,0.506l0.012,0.002c0.684,0.176,1.392,0.354,1.956,0.75c0.549,0.385,1.069,0.877,1.546,1.463
			c0.344,0.422,0.584,0.797,0.731,1.049c-1.027-0.418-2.615-1.381-3.536-1.869c0.421,0.365,2.164,1.582,3.367,2.152
			c-0.056,0.002-0.111,0.002-0.163,0.002C33.685,43.449,32.419,42.908,31.358,41.837z M36.191,47.806
			c-0.553-0.24-1.072-0.584-1.544-1.02c-0.889-0.824-1.385-1.777-1.558-2.148l-0.016-0.035l0.035,0.014
			c0.331,0.166,0.847,0.256,1.392,0.35c0.728,0.125,1.552,0.266,2.176,0.625c0.572,0.332,1.121,0.777,1.631,1.328
			c0.414,0.447,0.707,0.861,0.875,1.117c-1.125-0.381-3.271-1.502-3.705-1.732c0.229,0.197,1.925,1.381,3.313,1.916
			c-0.159,0.012-0.317,0.018-0.474,0.018C37.566,48.238,36.85,48.093,36.191,47.806z M60.6,59.14L60.6,59.14l0.002-0.008
			c0.005-0.039,0.012-0.1,0.02-0.178c0.001,0,0.001-0.004,0.001-0.004c0.047-0.215,0.164-0.363,0.371-0.461
			c0.184-0.086,0.429-0.131,0.728-0.131c0.623,0,1.489,0.189,2.56,0.545c-0.063,0.834-0.084,1.76-0.091,2.775
			c-0.425-0.488-1.151-0.789-1.823-1.064C61.263,60.166,60.57,59.826,60.6,59.14z M56.809,60.941c0.016-0.139,0.07-0.27,0.147-0.395
			c0.716,0.387,1.44,0.771,2.174,1.152c-0.598,0.115-1.233,0.215-1.902,0.303C56.916,61.607,56.773,61.251,56.809,60.941z
			 M59.213,57.085c0.335,0.295,0.335,0.758,0,1.27c-0.175,0.268-0.606,0.523-1.063,0.795h-0.006
			c-0.342,0.205-0.708,0.422-1.011,0.674c-0.735-0.373-1.46-0.75-2.174-1.131c0.937-0.428,1.832-0.883,2.594-1.535
			c0.254-0.217,0.573-0.334,0.9-0.334C58.747,56.824,59.023,56.919,59.213,57.085z M54.31,62.259
			c-0.674,0.035-1.334,0.055-1.97,0.055c-0.608,0-1.245-0.018-1.895-0.051c0.592-0.596,1.053-1.238,1.021-1.936
			c-0.018-0.395-0.191-0.766-0.517-1.127c0.492,0.125,0.915,0.18,1.376,0.184l0,0h0.012c0.001,0,0.001,0,0.001,0
			c0.002,0,0.002,0,0.002,0h0.013l0,0c0.481-0.006,0.938-0.072,1.494-0.223c-0.352,0.371-0.537,0.758-0.556,1.166
			C53.261,61.023,53.719,61.666,54.31,62.259z M52.338,59.025c-0.493-0.006-0.939-0.072-1.491-0.223
			c0.478-0.275,0.952-0.553,1.423-0.828c0.021,0,0.043,0,0.067,0c0.026,0,0.054,0,0.081,0c0.465,0.271,0.934,0.545,1.407,0.818
			C53.265,58.951,52.813,59.019,52.338,59.025z M52.34,53.214c-0.129,0.002-0.252,0.002-0.369,0.006
			c-0.037-0.779-0.292-1.211-0.608-1.523c0.373,0.074,0.704,0.105,1.03,0.109c0.317-0.004,0.636-0.035,0.992-0.105
			c-0.308,0.309-0.563,0.738-0.599,1.521C52.645,53.216,52.498,53.216,52.34,53.214z M52.34,53.554
			c2.192,0.004,2.426,0.354,2.426,0.682v2.781c0,0.506-1,0.613-2.429,0.615c-1.43-0.002-2.425-0.109-2.425-0.615v-2.781
			C49.912,53.908,50.148,53.558,52.34,53.554z M56.028,55.98c0.722,0,1.48,0.258,2.077,0.521c-0.289,0.059-0.561,0.188-0.787,0.381
			c-0.798,0.68-1.725,1.129-2.762,1.594c-0.336-0.182-0.667-0.363-0.997-0.547c0.889-0.078,1.545-0.299,1.545-0.912v-0.779
			c0.094-0.061,0.188-0.121,0.281-0.18C55.586,56.007,55.801,55.98,56.028,55.98z M63.929,49.986
			c0.751-0.322,1.682-0.363,2.503-0.398c0.555-0.023,1.032-0.047,1.366-0.148l0.038-0.014l-0.022,0.033
			c-0.228,0.348-0.866,1.234-1.853,1.99c-0.493,0.379-1.014,0.678-1.544,0.889c-0.621,0.246-1.267,0.369-1.916,0.369
			c-0.416,0-0.841-0.051-1.266-0.152c1.282-0.27,2.839-0.869,3.586-1.367c-0.697,0.277-2.804,1.055-3.994,1.141
			c0.149-0.172,0.463-0.512,0.896-0.896c0.123-0.104,0.247-0.205,0.368-0.311C62.602,50.712,63.226,50.291,63.929,49.986z
			 M61.193,48.455c0.161-0.697,0.474-1.373,0.93-2.012c0.884-1.238,2.058-1.988,2.521-2.256l0.036-0.023l-0.016,0.041
			c-0.123,0.326-0.173,0.801-0.231,1.352c-0.089,0.818-0.188,1.748-0.557,2.477c-0.728,1.432-1.958,2.496-2.447,2.881
			c0.231-1.123,1.154-3.197,1.449-3.805c-0.266,0.34-1.307,2.23-1.71,3.586C61.017,49.929,61.025,49.177,61.193,48.455z
			 M58.538,51.185c-0.034,0.342-0.25,0.676-0.642,0.988c-0.348,0.279-0.841,0.467-1.323,0.654c-0.626,0.242-1.269,0.492-1.602,0.957
			c-0.238-0.332-0.817-0.5-1.849-0.551c0.042-0.965,0.436-1.27,0.886-1.615l0.128-0.102l-0.004-0.004
			c0.383-0.111,0.816-0.262,1.332-0.457c0.298-0.113,0.59-0.252,0.849-0.377c0.573-0.275,1.008-0.473,1.381-0.473
			c0.254,0,0.466,0.094,0.654,0.293C58.385,50.55,58.574,50.816,58.538,51.185z M49.974,49.267h0.002
			c0.49,0.033,0.884,0.154,1.264,0.271c0.361,0.111,0.767,0.213,1.153,0.229l0,0c0.006,0,0.011,0,0.017,0c0.007,0,0.013,0,0.019,0
			l0,0c0.384-0.016,0.727-0.117,1.091-0.23c0.359-0.109,0.769-0.236,1.261-0.27l0.063-0.002c0.505,0,1.642,0.322,2.473,0.652
			c-0.375,0.086-0.771,0.275-1.169,0.463c-0.259,0.127-0.53,0.256-0.802,0.359c-1.406,0.531-2.188,0.719-2.951,0.729
			c-0.764-0.01-1.576-0.197-2.981-0.729c-0.271-0.102-0.531-0.227-0.825-0.369c-0.383-0.182-0.773-0.369-1.149-0.453
			C48.29,49.585,49.469,49.267,49.974,49.267z M48.183,52.833c-0.475-0.186-0.967-0.377-1.323-0.66
			c-0.391-0.313-0.605-0.641-0.642-0.982c-0.041-0.391,0.173-0.672,0.186-0.686c0.187-0.199,0.403-0.295,0.659-0.295
			c0.374,0,0.809,0.193,1.381,0.469c0.26,0.125,0.552,0.266,0.847,0.377c0.513,0.193,0.948,0.344,1.332,0.455l-0.004,0.006
			l0.128,0.1c0.45,0.348,0.842,0.652,0.885,1.613c-1.044,0.047-1.639,0.205-1.899,0.523C49.41,53.306,48.789,53.066,48.183,52.833z
			 M40.253,45.556c-0.058-0.551-0.108-1.025-0.231-1.352l-0.017-0.041l0.037,0.023c0.463,0.268,1.637,1.018,2.521,2.256
			c0.456,0.639,0.768,1.314,0.929,2.012c0.169,0.723,0.177,1.475,0.025,2.24c-0.403-1.355-1.444-3.246-1.711-3.586
			c0.295,0.607,1.218,2.682,1.45,3.805c-0.49-0.385-1.72-1.449-2.446-2.881C40.44,47.304,40.341,46.375,40.253,45.556z
			 M42.185,52.707c-0.648,0-1.294-0.123-1.915-0.369c-0.532-0.211-1.052-0.51-1.545-0.889c-0.986-0.756-1.625-1.643-1.854-1.99
			l-0.021-0.033l0.039,0.014c0.332,0.102,0.811,0.125,1.365,0.148c0.822,0.035,1.753,0.076,2.503,0.398
			c0.702,0.305,1.327,0.725,1.836,1.135c0.122,0.105,0.247,0.209,0.371,0.314c0.434,0.381,0.746,0.721,0.895,0.893
			c-1.189-0.086-3.296-0.863-3.994-1.141c0.747,0.498,2.305,1.098,3.587,1.367C43.025,52.656,42.602,52.707,42.185,52.707z
			 M48.631,55.98c0.25,0,0.487,0.037,0.707,0.102c0.079,0.051,0.156,0.102,0.236,0.152v0.783c0,0.613,0.659,0.836,1.551,0.916
			c-0.335,0.184-0.672,0.371-1.013,0.553l-0.006-0.002c-1.061-0.477-1.836-0.893-2.666-1.602c-0.23-0.195-0.507-0.326-0.8-0.383
			C47.236,56.23,47.944,55.98,48.631,55.98z M46.604,59.146l-0.008-0.006c-0.452-0.268-0.877-0.518-1.05-0.785
			c-0.336-0.51-0.336-0.975-0.001-1.27c0.188-0.168,0.465-0.262,0.76-0.262c0.325,0,0.645,0.117,0.898,0.334
			c0.797,0.68,1.543,1.098,2.51,1.543c-0.695,0.371-1.401,0.738-2.117,1.1C47.297,59.558,46.939,59.347,46.604,59.146z
			 M47.784,60.517c0.087,0.133,0.146,0.273,0.164,0.424c0.035,0.313-0.109,0.67-0.424,1.066c-0.694-0.088-1.352-0.189-1.969-0.309
			C46.308,61.308,47.051,60.917,47.784,60.517z M44.064,58.951c0.009,0.078,0.017,0.152,0.021,0.178l0.001,0.01h0.001
			c0.03,0.688-0.662,1.027-1.768,1.477c-0.678,0.277-1.412,0.582-1.835,1.078c-0.008-0.924-0.032-1.902-0.099-2.783
			c1.079-0.359,1.953-0.551,2.579-0.551c0.301,0,0.545,0.045,0.729,0.131C43.9,58.589,44.018,58.736,44.064,58.951L44.064,58.951z
			 M23.848,59.23c-0.079-0.262-0.036-0.516,0.133-0.781c0.706-1.107,3.62-2.189,7.425-2.758l0.037-0.006l0.432,1.863l-0.03,0.014
			c-3.367,1.615-5.517,2.367-6.77,2.367c-0.284,0-0.525-0.039-0.715-0.121C24.1,59.695,23.932,59.507,23.848,59.23z M34.46,61.138
			c-4.513,2.334-6.808,2.824-7.938,2.824c-0.369,0-0.677-0.051-0.915-0.15c-0.288-0.123-0.47-0.313-0.552-0.588l-0.948-3.135
			c0.035,0.018,0.07,0.037,0.106,0.051c0.232,0.1,0.524,0.15,0.867,0.15c1.92,0,5.402-1.617,8.88-3.367
			c4.666-2.346,7.037-2.84,8.205-2.84c0.549,0,0.861,0.109,1.026,0.201c0.256,0.139,0.394,0.348,0.423,0.641
			c0.087,0.879,0.259,2.371,0.367,3.313c-0.043-0.027-0.086-0.053-0.134-0.074c-0.226-0.107-0.522-0.162-0.88-0.162
			C40.941,58.001,37.223,59.707,34.46,61.138z M40.489,62.652c0-0.793,0.75-1.191,1.626-1.559c0.48,0.203,1.034,0.393,1.651,0.563
			c-1.055,0.49-2.127,0.971-3.212,1.445C40.511,62.955,40.489,62.806,40.489,62.652z M45.638,65.966
			c-2.263-0.506-3.832-1.213-4.603-2.055c1.361-0.625,2.699-1.277,4.008-1.947c0.679,0.143,1.411,0.268,2.19,0.371
			c-0.047,0.047-0.091,0.094-0.142,0.141C45.629,63.871,45.3,64.824,45.638,65.966z M46.66,67.169l-0.034,0.084l-0.041-0.076
			c-1.042-1.838-1.074-2.691,0.756-4.438c0.715-0.68,1.03-1.283,0.967-1.84c-0.022-0.203-0.096-0.389-0.205-0.557
			c0.748-0.41,1.484-0.824,2.212-1.238c0.51,0.406,0.77,0.814,0.788,1.238c0.042,0.893-0.989,1.771-1.897,2.549
			c-0.842,0.719-1.569,1.338-1.459,1.957c0.045,0.25,0.221,0.461,0.536,0.646l0.067,0.041l-0.072,0.033
			C47.467,65.941,46.937,66.466,46.66,67.169z M52.347,66.679c-1.494-0.002-3.133-0.123-4.64-0.338
			c0.414-0.342,0.88-0.518,1.176-0.629l0.455-0.168l-0.455-0.17c-0.481-0.18-0.743-0.377-0.779-0.588
			c-0.072-0.412,0.612-0.998,1.339-1.619l0.004-0.002c0.21-0.182,0.428-0.367,0.637-0.559c0.772,0.045,1.526,0.07,2.246,0.07v0.002
			h0.011h0.013v-0.002c0.747,0,1.525-0.027,2.316-0.076c0.216,0.197,0.439,0.389,0.657,0.574l0.011,0.01
			c0.714,0.613,1.39,1.193,1.317,1.6c-0.039,0.213-0.302,0.412-0.78,0.59l-0.454,0.17l0.454,0.168
			c0.296,0.111,0.755,0.285,1.167,0.621C55.521,66.552,53.86,66.677,52.347,66.679z M58.172,67.177l-0.042,0.076l-0.032-0.08
			c-0.277-0.707-0.807-1.232-1.619-1.604l-0.072-0.033l0.069-0.041c0.315-0.186,0.491-0.396,0.535-0.646
			c0.109-0.619-0.618-1.238-1.46-1.957c-0.246-0.211-0.501-0.428-0.741-0.652v-0.01H54.8c-0.642-0.6-1.176-1.238-1.146-1.887
			c0.02-0.418,0.268-0.816,0.76-1.215c0.731,0.418,1.47,0.832,2.222,1.244c-0.097,0.162-0.164,0.336-0.186,0.527
			c-0.063,0.557,0.253,1.16,0.966,1.84C59.246,64.486,59.216,65.339,58.172,67.177z M62.691,64.667
			c-0.862,0.51-2.063,0.941-3.566,1.281c0.329-1.137-0.004-2.084-1.46-3.473c-0.054-0.051-0.101-0.1-0.149-0.148
			c0.755-0.102,1.467-0.225,2.127-0.363c1.311,0.67,2.649,1.322,4.014,1.949C63.414,64.177,63.093,64.431,62.691,64.667z
			 M60.919,61.654c0.616-0.168,1.171-0.357,1.652-0.561c0.813,0.342,1.52,0.711,1.616,1.395c0,0.031,0,0.061,0,0.092v0.012h0.007
			c0.002,0.02,0.004,0.039,0.004,0.061c0,0.154-0.022,0.303-0.065,0.451C63.048,62.628,61.976,62.146,60.919,61.654z M79.632,63.224
			c-0.083,0.275-0.264,0.465-0.553,0.588c-0.235,0.1-0.543,0.15-0.914,0.15c-1.131,0-3.426-0.49-7.937-2.824
			c-2.764-1.432-6.483-3.137-8.509-3.137c-0.36,0-0.656,0.055-0.883,0.162c-0.047,0.021-0.091,0.047-0.132,0.074
			c0.132-1.141,0.285-2.5,0.366-3.313c0.029-0.291,0.167-0.502,0.421-0.641c0.166-0.092,0.48-0.201,1.03-0.201
			c1.166,0,3.536,0.494,8.204,2.84c3.476,1.75,6.957,3.367,8.881,3.367c0.341,0,0.633-0.051,0.864-0.15
			c0.038-0.014,0.075-0.033,0.11-0.053L79.632,63.224z M80.84,59.228c-0.084,0.279-0.251,0.467-0.511,0.58
			c-0.191,0.082-0.433,0.121-0.717,0.121c-1.253,0-3.403-0.752-6.77-2.367l-0.029-0.014l0.431-1.863l0.038,0.006
			c3.803,0.568,6.718,1.65,7.424,2.758C80.874,58.714,80.918,58.968,80.84,59.228z"/>
	</g>
	<g>
		<path d="M86.958,49.886h-1.736v-0.733h4.319v0.733h-1.736v5.223h-0.847V49.886z"/>
		<path d="M90.782,49.153h3.708v0.733h-2.86v1.702h2.069v0.733h-2.069v2.054h2.974v0.733h-3.821V49.153z"/>
		<path d="M99.837,53.439c-0.139,1.148-0.847,1.825-1.801,1.825c-1.271,0-1.996-1.076-1.996-3.138s0.726-3.129,1.996-3.129
			c0.904,0,1.564,0.595,1.769,1.679l-0.766,0.188c-0.139-0.766-0.465-1.133-1.011-1.133c-0.814,0-1.141,0.782-1.141,2.388
			c0,1.613,0.326,2.396,1.141,2.396c0.578,0,0.904-0.416,1.002-1.23L99.837,53.439z"/>
		<path d="M101.65,49.153h0.848v2.461h2.159v-2.461h0.848v5.956h-0.848v-2.763h-2.159v2.763h-0.848V49.153z"/>
		<path d="M107.626,49.153h1.133l1.377,3.088c0.285,0.636,0.554,1.296,0.79,1.964h0.058v-5.052h0.717v5.956h-1.1l-1.491-3.316
			c-0.277-0.611-0.514-1.214-0.709-1.833h-0.058v5.149h-0.717V49.153z"/>
		<path d="M115.306,48.998c1.271,0,1.996,1.067,1.996,3.129s-0.725,3.138-1.996,3.138c-1.271,0-2.004-1.076-2.004-3.138
			S114.036,48.998,115.306,48.998z M115.306,54.531c0.815,0,1.133-0.782,1.133-2.396c0-1.622-0.317-2.404-1.133-2.404
			c-0.814,0-1.141,0.782-1.141,2.404C114.166,53.749,114.492,54.531,115.306,54.531z"/>
		<path d="M119,49.153h0.848v5.223h2.729v0.733H119V49.153z"/>
		<path d="M125.277,48.998c1.271,0,1.996,1.067,1.996,3.129s-0.725,3.138-1.996,3.138c-1.271,0-2.004-1.076-2.004-3.138
			S124.006,48.998,125.277,48.998z M125.277,54.531c0.815,0,1.133-0.782,1.133-2.396c0-1.622-0.317-2.404-1.133-2.404
			c-0.814,0-1.141,0.782-1.141,2.404C124.136,53.749,124.462,54.531,125.277,54.531z"/>
		<path d="M132.353,55.207l-0.317-0.595h-0.163c-0.367,0.448-0.733,0.652-1.264,0.652c-1.197,0-1.988-1.133-1.988-3.162
			c0-1.996,0.84-3.104,2.119-3.104c0.799,0,1.442,0.521,1.694,1.435l-0.79,0.179c-0.13-0.57-0.48-0.88-0.945-0.88
			c-0.799,0-1.214,0.782-1.214,2.379c0,1.614,0.415,2.421,1.222,2.421c0.628,0,1.149-0.546,1.149-1.361v-0.081h-1.141v-0.733h1.931
			v2.852H132.353z"/>
		<path d="M134.255,54.546h0.514v-4.832h-0.514v-0.562h1.874v0.562h-0.513v4.832h0.513v0.563h-1.874V54.546z"/>
		<path d="M141.378,53.439c-0.139,1.148-0.847,1.825-1.801,1.825c-1.271,0-1.996-1.076-1.996-3.138s0.726-3.129,1.996-3.129
			c0.904,0,1.564,0.595,1.769,1.679l-0.766,0.188c-0.139-0.766-0.465-1.133-1.011-1.133c-0.814,0-1.141,0.782-1.141,2.388
			c0,1.613,0.326,2.396,1.141,2.396c0.578,0,0.904-0.416,1.002-1.23L141.378,53.439z"/>
		<path d="M146.042,53.837h-2.313l-0.408,1.271h-0.863l1.956-5.956h0.944l1.956,5.956h-0.864L146.042,53.837z M145.831,53.137
			l-0.945-3.121l-0.944,3.121H145.831z"/>
		<path d="M148.817,49.153h0.848v5.223h2.729v0.733h-3.577V49.153z"/>
		<path d="M87.063,58.937v3.78c0,1.076,0.334,1.598,1.043,1.598c0.807,0,1.125-0.57,1.125-1.752v-3.626h0.757v4.065
			c0,1.247-0.757,2.046-1.89,2.046c-1.206,0-1.883-0.75-1.883-2.168v-3.943H87.063z"/>
		<path d="M92.16,58.937h1.133l1.377,3.088c0.285,0.636,0.554,1.296,0.79,1.964h0.058v-5.052h0.717v5.956h-1.1l-1.491-3.316
			c-0.277-0.611-0.514-1.214-0.709-1.833h-0.058v5.149H92.16V58.937z"/>
		<path d="M97.989,64.331h0.514v-4.832h-0.514v-0.562h1.874v0.562H99.35v4.832h0.513v0.563h-1.874V64.331z"/>
		<path d="M101.072,58.937h0.839l1.491,4.938h0.073l1.491-4.938h0.84l-1.924,5.956h-0.896L101.072,58.937z"/>
		<path d="M107.341,58.937h3.708v0.733h-2.86v1.703h2.069v0.732h-2.069v2.054h2.974v0.733h-3.821V58.937z"/>
		<path d="M112.952,58.937h1.532c1.475,0,2.248,0.595,2.248,1.662c0,0.774-0.391,1.271-1.181,1.516l1.548,2.778h-0.978l-1.427-2.632
			h-0.896v2.632h-0.848V58.937z M113.799,61.544h0.595c0.994,0,1.475-0.285,1.475-0.938c0-0.651-0.48-0.953-1.475-0.953h-0.595
			V61.544z"/>
		<path d="M118.862,63.223c0.367,0.732,0.758,1.092,1.337,1.092c0.61,0,0.994-0.375,0.994-0.954c0-0.236-0.099-0.48-0.27-0.644
			c-0.326-0.31-0.749-0.456-1.173-0.66c-0.424-0.203-0.815-0.374-1.101-0.758c-0.195-0.261-0.301-0.578-0.301-0.912
			c0-0.953,0.692-1.605,1.719-1.605c0.84,0,1.459,0.416,1.883,1.255l-0.685,0.432c-0.302-0.659-0.645-0.953-1.19-0.953
			c-0.554,0-0.863,0.285-0.863,0.782c0,0.163,0.057,0.343,0.171,0.48c0.253,0.318,0.668,0.448,1.133,0.677
			c1.026,0.505,1.54,0.945,1.54,1.882c0,1.035-0.741,1.712-1.874,1.712c-0.953,0-1.622-0.44-2.045-1.361L118.862,63.223z"/>
		<path d="M123.477,64.331h0.514v-4.832h-0.514v-0.562h1.874v0.562h-0.513v4.832h0.513v0.563h-1.874V64.331z"/>
		<path d="M128.002,59.67h-1.736v-0.733h4.319v0.733h-1.736v5.223h-0.847V59.67z"/>
		<path d="M133.139,62.563l-2.013-3.626h0.929l1.475,2.859h0.098l1.499-2.859h0.872l-2.013,3.602v2.354h-0.847V62.563z"/>
	</g>
	<g>
		<path d="M88.265,9.426c1.212,0,2.105,0.049,2.754,0.416c0.808,0.453,1.248,1.285,1.248,2.387c0,1.101-0.44,1.946-1.248,2.398
			c-0.637,0.355-1.542,0.416-2.754,0.416h-0.269v3.329h-1.982V9.426H88.265z M87.997,13.525h0.551c1.248,0,1.713-0.269,1.713-1.285
			c0-1.028-0.465-1.297-1.713-1.297h-0.551V13.525z"/>
		<path d="M93.669,13.109c0-1.371,0.062-2.325,0.796-3.084c0.526-0.538,1.272-0.832,2.227-0.832c0.955,0,1.726,0.294,2.252,0.832
			c0.734,0.759,0.796,1.713,0.796,3.084v1.579c0,1.371-0.062,2.325-0.796,3.084c-0.526,0.539-1.297,0.832-2.252,0.832
			c-0.954,0-1.7-0.293-2.227-0.832c-0.734-0.759-0.796-1.713-0.796-3.084V13.109z M97.733,12.779c0-1.26-0.099-1.848-1.028-1.848
			s-1.028,0.587-1.028,1.848v2.24c0,1.26,0.099,1.848,1.028,1.848s1.028-0.587,1.028-1.848V12.779z"/>
		<path d="M101.753,9.426h1.983v7.208h3.916v1.738h-5.899V9.426z"/>
		<path d="M109.056,14.798l-2.741-5.373h2.104l1.628,3.341l1.628-3.341h2.093l-2.729,5.373v3.573h-1.982V14.798z"/>
		<path d="M116.223,11.164h-2.265V9.426h6.511v1.738h-2.264v7.208h-1.982V11.164z"/>
		<path d="M121.774,9.426h6.033v1.738h-4.051v1.591h2.767v1.738h-2.767v2.142h4.308v1.738h-6.29V9.426z"/>
		<path d="M129.308,13.109c0-1.371,0.061-2.325,0.795-3.084c0.526-0.538,1.285-0.832,2.24-0.832c1.799,0,2.998,1.163,2.998,2.497
			v0.539h-1.971c-0.024-0.894-0.318-1.297-1.027-1.297c-1.004,0-1.028,0.636-1.028,1.848v2.24c0,1.248,0.086,1.848,1.028,1.848
			c0.758,0,1.027-0.44,1.027-1.432V15.3h1.971v0.6c0,1.579-1.175,2.705-2.998,2.705c-0.955,0-1.714-0.293-2.24-0.832
			c-0.734-0.759-0.795-1.713-0.795-3.084V13.109z"/>
		<path d="M137.294,9.426h1.982v3.341h2.595V9.426h1.982v8.946h-1.982v-3.867h-2.595v3.867h-1.982V9.426z"/>
		<path d="M146.174,9.426h1.908l2.864,5.434l-0.037-5.434h1.726v8.946h-1.628l-3.145-6.045l0.036,6.045h-1.725V9.426z"/>
		<path d="M154.184,17.527h1.016v-7.318h-1.016V9.426h4.026v0.783h-1.028v7.318h1.028v0.844h-4.026V17.527z"/>
		<path d="M159.431,13.109c0-1.371,0.062-2.325,0.796-3.084c0.526-0.538,1.31-0.832,2.276-0.832c0.954,0,1.713,0.294,2.239,0.832
			c0.734,0.759,0.795,1.713,0.795,3.084v1.579c0,1.04-0.061,1.713-0.184,2.032c0.245,0.33,0.49,0.477,0.82,0.477h0.11v2.007h-0.172
			c-0.856,0-1.407-0.355-1.737-1.15c-0.539,0.392-1.126,0.551-1.872,0.551c-0.955,0-1.75-0.293-2.276-0.832
			c-0.734-0.759-0.796-1.701-0.796-3.084V13.109z M161.438,15.019c0,1.26,0.099,1.848,1.028,1.848c0.354,0,0.6-0.098,0.771-0.342
			c-0.184-0.355-0.428-0.526-0.771-0.526h-0.073v-1.713h0.098c0.502,0,0.905,0.282,1.138,0.795l0.037-0.024
			c-0.098-0.22-0.135-0.477-0.135-0.795v-1.481c0-1.272-0.098-1.848-1.053-1.848c-0.954,0-1.04,0.575-1.04,1.848V15.019z"/>
		<path d="M169.669,15.006c0,1.297,0.195,1.848,1.224,1.848c1.04,0,1.224-0.563,1.224-1.848V9.426h1.982v6.045
			c0,2.105-1.028,3.121-3.206,3.121c-2.166,0-3.206-1.028-3.206-3.121V9.426h1.982V15.006z"/>
		<path d="M176.443,9.426h6.033v1.738h-4.051v1.591h2.767v1.738h-2.767v2.142h4.308v1.738h-6.29V9.426z"/>
		<path d="M93.001,24.719l-1.909,7.514h-1.334l-1.909-7.514l0.062,7.514h-1.726v-8.946h2.668l1.566,5.776l1.578-5.776h2.668v8.946
			H92.94L93.001,24.719z"/>
		<path d="M96.898,26.97c0-1.371,0.062-2.325,0.796-3.084c0.526-0.538,1.272-0.832,2.227-0.832c0.955,0,1.726,0.294,2.252,0.832
			c0.734,0.759,0.796,1.713,0.796,3.084v1.579c0,1.371-0.062,2.325-0.796,3.084c-0.526,0.539-1.297,0.832-2.252,0.832
			c-0.954,0-1.7-0.293-2.227-0.832c-0.734-0.759-0.796-1.713-0.796-3.084V26.97z M100.961,26.64c0-1.26-0.099-1.848-1.028-1.848
			s-1.028,0.587-1.028,1.848v2.24c0,1.26,0.099,1.848,1.028,1.848s1.028-0.587,1.028-1.848V26.64z"/>
		<path d="M105.191,23.287h1.908l2.864,5.434l-0.037-5.434h1.726v8.946h-1.628l-3.145-6.045l0.036,6.045h-1.725V23.287z"/>
		<path d="M115.269,25.024h-2.265v-1.738h6.511v1.738h-2.264v7.208h-1.982V25.024z"/>
		<path d="M123.096,23.287c1.199,0,2.105,0.037,2.754,0.379c0.808,0.428,1.248,1.224,1.248,2.264c0,1.199-0.575,2.056-1.64,2.423
			l1.958,3.879h-2.215l-1.738-3.647h-0.661v3.647h-1.982v-8.946H123.096z M122.802,27.166h0.551c1.199,0,1.738-0.171,1.738-1.175
			c0-1.016-0.539-1.187-1.738-1.187h-0.551V27.166z"/>
		<path d="M128.99,23.287h6.033v1.738h-4.051v1.591h2.767v1.738h-2.767v2.142h4.308v1.738h-6.29V23.287z M132.135,22.394h-0.918
			l1.15-2.215h1.713L132.135,22.394z"/>
		<path d="M141.028,30.446h-2.692l-0.465,1.787h-1.922l2.57-8.946h2.337l2.57,8.946h-1.921L141.028,30.446z M140.648,28.916
			l-0.954-4.039l-0.967,4.039H140.648z"/>
		<path d="M144.744,23.287h1.982v7.208h3.916v1.738h-5.898V23.287z"/>
	</g>
</g>
<g>
</g>
<g>
</g>
<g>
</g>
<g>
</g>
<g>
</g>
<g>
</g>
</svg>
