<?xml version="1.0" encoding="utf-8"?>
<!-- Generator: Adobe Illustrator 16.0.0, SVG Export Plug-In . SVG Version: 6.00 Build 0)  -->
<!DOCTYPE svg PUBLIC "-//W3C//DTD SVG 1.1//EN" "http://www.w3.org/Graphics/SVG/1.1/DTD/svg11.dtd">
<svg version="1.1" id="Calque_1" xmlns="http://www.w3.org/2000/svg" xmlns:xlink="http://www.w3.org/1999/xlink" x="0px" y="0px"
	 width="86px" height="72px" viewBox="0 0 86 72" enable-background="new 0 0 86 72" xml:space="preserve">
<path fill="#444444" d="M61.915,31.236c-7.312-0.838-15,4.264-16.447,14.468c-0.051,0.354-0.094,0.719-0.127,1.086h-0.432
	c0.62-6.921,3.487-11.723,5.202-14.917c2.224-4.14,0.418-8.219-0.459-10.043c-0.998-2.07-5.514-10.438-6.665-13.273
	C41.84,11.393,37.357,19.76,36.36,21.83c-0.879,1.824-2.684,5.903-0.46,10.043c1.703,3.173,4.584,8.027,5.252,14.917H40.66
	c-0.033-0.367-0.076-0.729-0.127-1.086C39.087,35.5,31.396,30.398,24.086,31.236c-8.177,0.937-12.565,13.858,0.076,16.981
	c-2.057-3.809,1.142-10.662,8.528-6.777c2.402,1.265,4.076,3.281,4.768,5.352h-1.237c-1.167,0-2.113,0.688-2.113,1.529
	c0,0.847,0.946,1.533,2.113,1.533h1.507c-0.124,0.666-0.377,1.299-0.772,1.865c-1.752,2.514-7.618,1.143-4.345-4.34
	c-5.533-0.729-7.005,4.492-5.405,7.311c1.757,3.594,9.434,4.668,12.339-0.457c0.696-1.229,1.046-2.77,1.159-4.379h0.593
	c-0.005,1.217-0.081,2.488-0.243,3.818c-1.941,1.25-1.186,3.947-3.643,5.559c1.544,0.041,2.804-0.262,3.21-0.83
	c0,1.649,1.476,3.041,2.438,5.043c0.893-2.014,2.332-3.695,2.332-5.043c0.406,0.568,1.666,0.871,3.211,0.83
	c-2.254-1.381-1.365-3.914-3.568-5.723c-0.156-1.273-0.23-2.49-0.242-3.654h0.508c0.111,1.609,0.465,3.148,1.158,4.379
	c2.902,5.125,10.582,4.051,12.338,0.457c1.602-2.816,0.129-8.039-5.402-7.311c3.271,5.482-2.596,6.854-4.348,4.34
	c-0.396-0.566-0.646-1.199-0.771-1.865h1.623c1.168,0,2.112-0.688,2.112-1.533c0-0.844-0.944-1.529-2.112-1.529h-1.354
	c0.689-2.066,2.365-4.087,4.77-5.352c7.387-3.885,10.586,2.971,8.527,6.777C74.479,45.095,70.09,32.173,61.915,31.236z"/>
</svg>
