<?xml version="1.0" encoding="utf-8"?>
<!-- Generator: Adobe Illustrator 16.0.0, SVG Export Plug-In . SVG Version: 6.00 Build 0)  -->
<!DOCTYPE svg PUBLIC "-//W3C//DTD SVG 1.1//EN" "http://www.w3.org/Graphics/SVG/1.1/DTD/svg11.dtd">
<svg version="1.1" id="Capa_1" xmlns="http://www.w3.org/2000/svg" xmlns:xlink="http://www.w3.org/1999/xlink" x="0px" y="0px"
	 width="511.625px" height="511.627px" viewBox="0 0 511.625 511.627" enable-background="new 0 0 511.625 511.627"
	 xml:space="preserve">
<g>
	<g>
		<path fill="#444444" d="M447.672,109.632h54.818c2.666,0,4.852-0.854,6.566-2.565c1.709-1.713,2.566-3.901,2.566-6.567V45.68
			c0-2.667-0.854-4.854-2.566-6.563c-1.713-1.716-3.904-2.57-6.566-2.57h-54.818c-2.662,0-4.85,0.854-6.564,2.57
			c-1.713,1.709-2.568,3.898-2.568,6.563v54.819c0,2.666,0.855,4.848,2.568,6.566C442.822,108.777,445.012,109.634,447.672,109.632z
			"/>
		<path fill="#444444" d="M228.402,219.265h54.818c2.666,0,4.854-0.854,6.566-2.565c1.711-1.711,2.57-3.901,2.57-6.563V45.681
			c0-2.667-0.855-4.855-2.57-6.563c-1.713-1.716-3.898-2.57-6.566-2.57h-54.818c-2.666,0-4.856,0.854-6.563,2.57
			c-1.711,1.709-2.573,3.898-2.573,6.563v164.454c0,2.662,0.862,4.853,2.573,6.563C223.546,218.409,225.737,219.266,228.402,219.265
			z"/>
		<path fill="#444444" d="M338.039,146.171h54.816c2.668,0,4.854-0.853,6.566-2.563c1.711-1.71,2.566-3.901,2.566-6.563V45.688
			c0-2.671-0.854-4.859-2.566-6.57s-3.898-2.566-6.566-2.566h-54.816c-2.664,0-4.854,0.855-6.568,2.566
			c-1.709,1.711-2.566,3.899-2.566,6.57v91.356c0,2.662,0.857,4.853,2.566,6.563C333.186,145.317,335.377,146.174,338.039,146.171z"
			/>
		<path fill="#444444" d="M118.771,328.901h54.82c2.666,0,4.855-0.855,6.57-2.568c1.708-1.713,2.563-3.9,2.563-6.566V45.68
			c0-2.667-0.856-4.855-2.563-6.563c-1.715-1.716-3.904-2.57-6.57-2.57h-54.82c-2.667,0-4.856,0.854-6.563,2.57
			c-1.716,1.709-2.57,3.898-2.57,6.563v274.087c0,2.666,0.853,4.852,2.57,6.566C113.915,328.046,116.104,328.901,118.771,328.901z"
			/>
		<path fill="#444444" d="M2.568,472.511c1.716,1.715,3.9,2.568,6.568,2.568h54.815c2.662,0,4.853-0.854,6.566-2.568
			c1.715-1.709,2.57-3.898,2.57-6.563V45.68c0-2.667-0.855-4.855-2.57-6.563c-1.714-1.716-3.904-2.57-6.566-2.57H9.135
			c-2.668,0-4.851,0.854-6.568,2.57c-1.712,1.709-2.566,3.898-2.566,6.563v420.267C0.001,468.61,0.855,470.8,2.568,472.511z"/>
	</g>
</g>
</svg>
