<?xml version="1.0" encoding="utf-8"?>
<!-- Generator: Adobe Illustrator 16.0.0, SVG Export Plug-In . SVG Version: 6.00 Build 0)  -->
<!DOCTYPE svg PUBLIC "-//W3C//DTD SVG 1.1//EN" "http://www.w3.org/Graphics/SVG/1.1/DTD/svg11.dtd">
<svg version="1.1" id="Capa_1" xmlns="http://www.w3.org/2000/svg" xmlns:xlink="http://www.w3.org/1999/xlink" x="0px" y="0px"
	 width="511.625px" height="511.627px" viewBox="0 0 511.625 511.627" enable-background="new 0 0 511.625 511.627"
	 xml:space="preserve">
<g>
	<g>
		<path fill="#444444" d="M107.065,441.107c-1.719-1.713-3.901-2.568-6.566-2.568h-54.82c-2.665,0-4.854,0.855-6.563,2.568
			c-1.717,1.714-2.57,3.903-2.57,6.565v54.818c0,2.662,0.854,4.854,2.57,6.566c1.708,1.713,3.896,2.567,6.563,2.567h54.82
			c2.665,0,4.854-0.858,6.567-2.567c1.712-1.714,2.565-3.9,2.565-6.566v-54.818C109.633,445.011,108.777,442.821,107.065,441.107z"
			/>
		<path fill="#444444" d="M216.698,221.839c-1.711-1.711-3.901-2.573-6.563-2.573H45.68c-2.665,0-4.854,0.862-6.563,2.573
			c-1.717,1.707-2.57,3.897-2.57,6.563v54.818c0,2.668,0.854,4.854,2.57,6.566c1.708,1.715,3.896,2.57,6.563,2.57h164.456
			c2.662,0,4.852-0.859,6.563-2.57c1.711-1.713,2.565-3.9,2.565-6.566v-54.818C219.265,225.737,218.409,223.546,216.698,221.839z"/>
		<path fill="#444444" d="M143.608,331.47c-1.711-1.709-3.901-2.566-6.563-2.566H45.688c-2.671,0-4.859,0.857-6.57,2.566
			c-1.711,1.715-2.566,3.904-2.566,6.568v54.816c0,2.669,0.855,4.854,2.566,6.567s3.899,2.567,6.57,2.567h91.356
			c2.662,0,4.853-0.856,6.563-2.567c1.711-1.713,2.564-3.899,2.564-6.567v-54.816C146.174,335.376,145.317,333.185,143.608,331.47z"
			/>
		<path fill="#444444" d="M326.332,112.207c-1.714-1.717-3.9-2.57-6.566-2.57H45.679c-2.665,0-4.854,0.854-6.563,2.57
			c-1.717,1.707-2.57,3.896-2.57,6.563v54.82c0,2.666,0.854,4.855,2.57,6.57c1.708,1.707,3.896,2.563,6.563,2.563h274.087
			c2.666,0,4.853-0.855,6.566-2.563c1.713-1.715,2.568-3.904,2.568-6.57v-54.82C328.9,116.103,328.045,113.914,326.332,112.207z"/>
		<path fill="#444444" d="M465.945,0.001H45.679c-2.665,0-4.854,0.854-6.563,2.566c-1.717,1.717-2.57,3.9-2.57,6.568v54.816
			c0,2.662,0.854,4.852,2.57,6.566c1.708,1.715,3.896,2.57,6.563,2.57h420.269c2.664,0,4.854-0.855,6.563-2.57
			c1.715-1.713,2.568-3.904,2.568-6.566V9.136c0-2.668-0.854-4.852-2.568-6.568C470.8,0.855,468.609,0.001,465.945,0.001z"/>
	</g>
</g>
</svg>
